<svg width="160" height="122" viewBox="0 0 160 122" fill="none" xmlns="http://www.w3.org/2000/svg">
<path d="M40.2758 49.0149L39.271 55.1418L38.2052 61.7251L28.4002 121.766H12.3834L22.1782 61.7251L23.2541 55.1418L24.2489 49.0149H40.2758Z" fill="#0076DF"/>
<path d="M37.9511 49.0149C37.1087 55.1012 36.1951 61.1874 35.2816 67.2737L32.4599 85.4717L29.4859 103.609L27.9634 112.738L26.38 121.807L27.6792 112.677L29.0495 103.548L31.8712 85.35L34.835 67.1723C35.8399 61.1164 36.8651 55.0606 37.9511 49.0149Z" fill="#E6EFF8"/>
<path d="M39.2707 55.1416L38.205 61.7249H22.178L23.2539 55.1416H39.2707Z" fill="#E6EFF8"/>
<path d="M119.375 49.0149L120.37 55.1418L121.446 61.7251L131.24 121.766H147.267L137.473 61.7251L136.397 55.1418L135.402 49.0149H119.375Z" fill="#0076DF"/>
<path d="M121.75 49.0149C122.593 55.1012 123.496 61.1874 124.42 67.2737L127.241 85.4717L130.205 103.609L131.728 112.687L133.321 121.756L132.022 112.627L130.652 103.497L127.83 85.35L124.897 67.1622C123.882 61.1165 122.867 55.0606 121.75 49.0149Z" fill="#E6EFF8"/>
<path d="M120.37 55.1416H136.397L137.473 61.7249H121.446L120.37 55.1416Z" fill="#E6EFF8"/>
<path d="M39.6867 32.1254H26.9789L28.5623 20.2876H38.1135L39.6867 32.1254Z" fill="#E6EFF8"/>
<path d="M45.1781 11.8277C45.1801 14.1694 44.4871 16.4591 43.1867 18.4072C41.8864 20.3552 40.0372 21.8741 37.8729 22.7716C35.7087 23.6691 33.3267 23.905 31.0283 23.4494C28.7299 22.9938 26.6184 21.8671 24.9608 20.212C23.3032 18.5568 22.174 16.4476 21.7161 14.151C21.2583 11.8544 21.4923 9.47368 22.3885 7.31002C23.2847 5.14635 24.803 3.29695 26.7511 1.99575C28.6992 0.694544 30.9897 5.21001e-06 33.3329 4.35027e-06C34.888 -0.00132848 36.4281 0.303616 37.8651 0.897415C39.3022 1.49121 40.608 2.36222 41.7081 3.46065C42.8081 4.55908 43.6808 5.86341 44.2762 7.29907C44.8716 8.73473 45.1781 10.2736 45.1781 11.8277Z" fill="#0076DF"/>
<path d="M42.3359 11.8277C42.3379 13.6077 41.8116 15.3483 40.8236 16.8292C39.8355 18.3102 38.4301 19.465 36.7852 20.1476C35.1403 20.8301 33.3297 21.0098 31.5826 20.6638C29.8355 20.3177 28.2304 19.4616 26.9702 18.2037C25.7101 16.9458 24.8517 15.3426 24.5035 13.5969C24.1552 11.8513 24.3329 10.0417 25.0141 8.397C25.6952 6.75233 26.8492 5.34651 28.3299 4.3574C29.8107 3.36828 31.5517 2.84033 33.3328 2.84033C35.7188 2.84033 38.0073 3.78689 39.6954 5.47206C41.3835 7.15723 42.3332 9.44319 42.3359 11.8277Z" fill="#0076DF"/>
<path d="M40.8642 11.3003C40.7822 10.227 40.4782 9.18243 39.9716 8.23259C39.4649 7.28275 38.7666 6.44831 37.9207 5.78203C37.0671 5.11732 36.0866 4.63407 35.0393 4.36194C33.992 4.08981 32.9001 4.03457 31.8306 4.19961C30.7736 4.36423 29.7633 4.75026 28.8659 5.33239C27.9686 5.91452 27.2044 6.6796 26.6237 7.57749C26.0122 8.52975 25.6109 9.60129 25.4464 10.7207C25.2819 11.8402 25.3579 12.9818 25.6695 14.0695C26.2155 15.9546 27.4803 17.5501 29.1917 18.5125C30.8599 19.4582 32.8179 19.7579 34.693 19.3544C36.5135 18.972 38.1474 17.9765 39.3214 16.5345C40.4768 15.1115 41.1424 13.3543 41.2195 11.5234C41.2195 11.4321 41.2195 11.3611 41.1484 11.3611C41.0774 11.3611 41.0672 11.422 41.0672 11.5133C41.0274 12.2532 40.8839 12.984 40.6409 13.6841C40.3893 14.3749 40.0481 15.0296 39.6259 15.6316C39.204 16.2311 38.7097 16.7762 38.1541 17.2547C37.5802 17.7276 36.9535 18.1327 36.2865 18.4618C35.3373 18.908 34.3052 19.1511 33.2565 19.1756C32.2078 19.2001 31.1655 19.0053 30.1965 18.6038C29.2124 18.1894 28.3298 17.5667 27.6097 16.7787C26.8895 15.9907 26.3488 15.056 26.0248 14.0391C25.6951 12.9941 25.5951 11.8902 25.7317 10.803C25.8684 9.71575 26.2384 8.67086 26.8165 7.73979C27.372 6.85197 28.1132 6.09485 28.9893 5.52051C29.8653 4.94617 30.8554 4.56823 31.8915 4.41263C33.6482 4.09287 35.4613 4.40548 37.0092 5.295C38.5571 6.18451 39.7395 7.59338 40.3466 9.2715C40.5877 9.94675 40.7478 10.6482 40.8236 11.3611L40.8642 11.3003Z" fill="white"/>
<path d="M39.8086 11.3001C39.7271 10.381 39.4582 9.48831 39.0183 8.67707C38.5783 7.86583 37.9769 7.15325 37.2508 6.58327C36.5234 6.0242 35.6921 5.61521 34.8051 5.38012C33.9182 5.14503 32.9934 5.08851 32.0844 5.21385C31.1736 5.34929 30.3016 5.67491 29.5251 6.16952C28.7486 6.66413 28.0851 7.31664 27.5777 8.08455C27.0415 8.90568 26.6863 9.8315 26.5358 10.8004C26.3853 11.7694 26.4429 12.7592 26.7048 13.7042C26.9289 14.5214 27.3135 15.2858 27.8363 15.9529C28.3591 16.6199 29.0096 17.1762 29.7499 17.5893C31.2058 18.4152 32.9165 18.6718 34.5508 18.3095C36.1264 17.9622 37.5368 17.0893 38.55 15.8344C39.5514 14.5971 40.1311 13.0724 40.2044 11.4827C40.2044 11.4117 40.2044 11.3508 40.1232 11.3508C40.042 11.3508 40.0421 11.4016 40.0421 11.4827C39.9571 12.7518 39.5365 13.9755 38.8231 15.0288C38.1098 16.0821 37.1293 16.9272 35.982 17.4777C35.1569 17.8781 34.256 18.0987 33.3391 18.1249C32.4222 18.1511 31.5101 17.9824 30.6633 17.6298C29.8095 17.2734 29.0448 16.7332 28.4237 16.0476C27.8027 15.3621 27.3405 14.5481 27.0702 13.6636C26.7897 12.7609 26.7088 11.808 26.8333 10.8709C26.9577 9.93389 27.2845 9.03506 27.7909 8.2367C28.2725 7.48143 28.912 6.83927 29.6654 6.35425C30.4187 5.86924 31.2682 5.55288 32.1554 5.42688C33.6513 5.16594 35.1914 5.43445 36.5105 6.18618C37.8297 6.9379 38.8452 8.12578 39.3823 9.54526C39.5921 10.1222 39.7351 10.7211 39.8086 11.3306C39.8108 11.3205 39.8108 11.3102 39.8086 11.3001Z" fill="white"/>
<path d="M38.753 11.3002C38.674 10.5374 38.4418 9.79832 38.0703 9.12727C37.6989 8.45623 37.1957 7.86698 36.591 7.39481C35.3676 6.46025 33.8252 6.04481 32.2975 6.23842C31.5344 6.34047 30.8015 6.60297 30.1472 7.0086C29.4928 7.41424 28.932 7.95381 28.5014 8.59179C28.0362 9.27991 27.7239 10.0597 27.5855 10.8786C27.4472 11.6975 27.4861 12.5365 27.6995 13.3391C27.8839 14.0395 28.2083 14.6954 28.6531 15.2672C29.098 15.8391 29.654 16.3149 30.2878 16.6663C31.5216 17.3576 32.9669 17.5706 34.3478 17.2647C35.684 16.9593 36.8762 16.2079 37.7278 15.1345C38.562 14.0808 39.0479 12.7941 39.1184 11.4523C39.1184 11.3915 39.1184 11.3407 39.0473 11.3407C38.9763 11.3407 38.9661 11.3407 38.956 11.4523C38.8806 12.5284 38.5204 13.5652 37.9122 14.4564C37.304 15.3476 36.4697 16.0612 35.4948 16.5242C34.8022 16.8706 34.0432 17.0644 33.2692 17.0924C32.4953 17.1204 31.7243 16.982 31.0085 16.6865C30.2843 16.3863 29.6357 15.9295 29.1092 15.349C28.5827 14.7685 28.1914 14.0786 27.9634 13.3289C27.7366 12.5662 27.6772 11.7635 27.7894 10.9757C27.9015 10.1879 28.1824 9.43355 28.6131 8.76423C29.023 8.14219 29.5626 7.61615 30.1951 7.22219C30.8276 6.82823 31.5379 6.57568 32.2772 6.48188C33.2585 6.36363 34.2539 6.48188 35.1801 6.82677C36.1349 7.16732 36.9753 7.7682 37.606 8.56136C37.9062 8.96526 38.155 9.40479 38.3469 9.8699C38.5255 10.3485 38.6514 10.8451 38.7225 11.3509C38.7315 11.3457 38.739 11.3384 38.7443 11.3295C38.7496 11.3206 38.7526 11.3105 38.753 11.3002Z" fill="white"/>
<path d="M37.6975 11.3002C37.5387 10.0745 36.8999 8.96183 35.9212 8.20633C34.9465 7.47647 33.7326 7.13973 32.5209 7.26296C31.9027 7.33622 31.3068 7.5384 30.7718 7.85643C30.2367 8.17445 29.7745 8.60123 29.415 9.10912C29.0252 9.66816 28.7592 10.3039 28.635 10.9739C28.5107 11.6439 28.5309 12.3327 28.6943 12.9942C28.8377 13.5771 29.1002 14.1239 29.4653 14.6005C29.8304 15.0771 30.2901 15.473 30.8157 15.7634C31.8511 16.3384 33.0655 16.5015 34.216 16.2199C35.3101 15.9561 36.283 15.3305 36.9768 14.4448C37.6547 13.5693 38.0479 12.5072 38.1035 11.4016C38.1049 11.391 38.1042 11.3801 38.1013 11.3697C38.0985 11.3593 38.0936 11.3496 38.087 11.3411C38.0804 11.3326 38.0722 11.3255 38.0628 11.3202C38.0534 11.3149 38.0431 11.3116 38.0324 11.3103C38.0089 11.3126 37.987 11.3229 37.9703 11.3396C37.9537 11.3562 37.9433 11.3782 37.9411 11.4016C37.8569 12.2612 37.5545 13.0851 37.0624 13.7952C36.5704 14.5053 35.9051 15.078 35.1295 15.4591C34.569 15.7497 33.9521 15.9156 33.3214 15.9454C32.6906 15.9751 32.0609 15.8681 31.4755 15.6316C30.8821 15.3885 30.3516 15.0138 29.9244 14.5358C29.4971 14.0578 29.1841 13.4891 29.009 12.8725C28.8329 12.2534 28.7933 11.6036 28.8932 10.9678C28.9931 10.332 29.23 9.72554 29.5875 9.19028C29.9235 8.69762 30.3626 8.28376 30.8743 7.97726C31.386 7.67077 31.9582 7.47897 32.5514 7.41511C33.325 7.34664 34.1042 7.44702 34.8352 7.70929C35.572 7.98073 36.2234 8.44279 36.7231 9.04826C36.962 9.36164 37.1629 9.70212 37.3219 10.0626C37.4774 10.4411 37.5898 10.8358 37.6568 11.2393C37.6568 11.2393 37.7076 11.3509 37.6975 11.3002Z" fill="white"/>
<path d="M132.388 32.1254H119.68L121.263 20.2876H130.814L132.388 32.1254Z" fill="#E6EFF8"/>
<path d="M137.879 11.8277C137.881 14.1694 137.188 16.4591 135.887 18.4072C134.587 20.3552 132.738 21.8741 130.573 22.7716C128.409 23.6691 126.027 23.905 123.729 23.4494C121.43 22.9938 119.319 21.8671 117.661 20.212C116.004 18.5568 114.875 16.4476 114.417 14.151C113.959 11.8544 114.193 9.47368 115.089 7.31001C115.985 5.14635 117.503 3.29695 119.452 1.99574C121.4 0.69454 123.69 8.59736e-07 126.033 0C129.173 -1.15201e-06 132.185 1.24579 134.406 3.46362C136.627 5.68144 137.876 8.68984 137.879 11.8277Z" fill="#0076DF"/>
<path d="M135.047 11.8277C135.049 13.6077 134.523 15.3483 133.535 16.8292C132.547 18.3102 131.141 19.465 129.496 20.1476C127.851 20.8301 126.041 21.0098 124.294 20.6638C122.547 20.3177 120.941 19.4616 119.681 18.2037C118.421 16.9458 117.563 15.3426 117.214 13.5969C116.866 11.8513 117.044 10.0417 117.725 8.397C118.406 6.75233 119.56 5.34651 121.041 4.3574C122.522 3.36828 124.263 2.84033 126.044 2.84033C128.43 2.84033 130.718 3.78689 132.406 5.47206C134.095 7.15723 135.044 9.44319 135.047 11.8277Z" fill="#0076DF"/>
<path d="M133.555 11.3003C133.477 10.2271 133.176 9.18193 132.671 8.23171C132.166 7.28149 131.468 6.44713 130.621 5.78203C129.768 5.11732 128.787 4.63407 127.74 4.36194C126.693 4.08981 125.601 4.03457 124.531 4.19961C123.474 4.36423 122.464 4.75026 121.566 5.33239C120.669 5.91452 119.905 6.6796 119.324 7.57749C118.713 8.52975 118.311 9.60129 118.147 10.7207C117.982 11.8402 118.059 12.9818 118.37 14.0695C118.916 15.9546 120.181 17.5501 121.892 18.5125C123.56 19.4582 125.519 19.7579 127.394 19.3544C129.214 18.972 130.848 17.9765 132.022 16.5345C133.177 15.1115 133.843 13.3543 133.92 11.5234C133.92 11.4321 133.92 11.3611 133.849 11.3611C133.778 11.3611 133.768 11.422 133.768 11.5133C133.728 12.2532 133.584 12.984 133.341 13.6841C133.086 14.373 132.745 15.0273 132.326 15.6316C131.905 16.2311 131.41 16.7762 130.855 17.2547C130.281 17.7276 129.654 18.1327 128.987 18.4618C128.031 18.9153 126.99 19.1624 125.932 19.1869C124.874 19.2113 123.822 19.0127 122.846 18.6038C121.862 18.1894 120.98 17.5667 120.259 16.7787C119.539 15.9907 118.999 15.056 118.675 14.0391C118.345 12.9941 118.245 11.8902 118.382 10.803C118.518 9.71575 118.888 8.67086 119.466 7.73979C120.021 6.85106 120.762 6.09326 121.638 5.5188C122.514 4.94434 123.505 4.56692 124.541 4.41263C126.301 4.08765 128.119 4.39773 129.671 5.28761C131.223 6.1775 132.409 7.58936 133.017 9.2715C133.258 9.94675 133.418 10.6482 133.494 11.3611C133.51 11.3611 133.525 11.3547 133.537 11.3433C133.548 11.3319 133.555 11.3164 133.555 11.3003Z" fill="white"/>
<path d="M132.509 11.3001C132.428 10.381 132.159 9.48831 131.719 8.67707C131.279 7.86583 130.678 7.15325 129.952 6.58327C129.224 6.0242 128.393 5.61521 127.506 5.38012C126.619 5.14503 125.694 5.08851 124.785 5.21385C123.874 5.34929 123.002 5.67491 122.226 6.16952C121.449 6.66413 120.786 7.31664 120.279 8.08455C119.742 8.90568 119.387 9.8315 119.237 10.8004C119.086 11.7694 119.144 12.7592 119.406 13.7042C119.63 14.5214 120.014 15.2858 120.537 15.9529C121.06 16.6199 121.71 17.1762 122.451 17.5893C123.907 18.4152 125.617 18.6718 127.252 18.3095C128.827 17.9622 130.238 17.0893 131.251 15.8344C132.254 14.5987 132.83 13.0724 132.895 11.4827C132.895 11.4117 132.895 11.3508 132.824 11.3508C132.753 11.3508 132.743 11.4016 132.743 11.4827C132.658 12.7518 132.237 13.9755 131.524 15.0288C130.811 16.0821 129.83 16.9272 128.683 17.4777C127.858 17.8781 126.957 18.0987 126.04 18.1249C125.123 18.1511 124.211 17.9824 123.364 17.6298C122.51 17.2734 121.746 16.7332 121.125 16.0476C120.503 15.3621 120.041 14.5481 119.771 13.6636C119.491 12.7613 119.41 11.8092 119.532 10.8725C119.655 9.93577 119.979 9.03663 120.482 8.2367C120.965 7.48324 121.605 6.84244 122.358 6.35766C123.111 5.87288 123.96 5.55546 124.846 5.42688C126.344 5.16338 127.886 5.43065 129.207 6.18256C130.529 6.93446 131.546 8.1238 132.083 9.54526C132.293 10.1222 132.436 10.7211 132.509 11.3306C132.512 11.3205 132.512 11.3102 132.509 11.3001Z" fill="white"/>
<path d="M131.454 11.3001C131.375 10.5373 131.143 9.79824 130.771 9.12719C130.4 8.45615 129.897 7.8669 129.292 7.39473C128.07 6.45658 126.527 6.03746 124.998 6.2282C124.235 6.33025 123.502 6.59273 122.848 6.99837C122.194 7.404 121.633 7.94359 121.202 8.58157C120.737 9.26969 120.425 10.0494 120.286 10.8683C120.148 11.6872 120.187 12.5262 120.4 13.3289C120.585 14.0293 120.909 14.6852 121.354 15.257C121.799 15.8288 122.355 16.3047 122.989 16.656C124.222 17.3474 125.668 17.5604 127.049 17.2545C128.385 16.9491 129.577 16.1977 130.429 15.1243C131.263 14.0706 131.749 12.7839 131.819 11.4421C131.819 11.3812 131.819 11.3305 131.748 11.3305C131.677 11.3305 131.667 11.3305 131.657 11.4421C131.575 12.5165 131.213 13.5506 130.605 14.4408C129.998 15.331 129.167 16.0459 128.196 16.514C127.503 16.8604 126.744 17.0542 125.97 17.0822C125.196 17.1102 124.425 16.9718 123.709 16.6763C122.984 16.3773 122.335 15.9209 121.808 15.3402C121.282 14.7595 120.891 14.069 120.664 13.3187C120.437 12.5559 120.378 11.7532 120.49 10.9654C120.602 10.1776 120.883 9.42333 121.314 8.75401C121.724 8.13197 122.263 7.60591 122.896 7.21195C123.528 6.81799 124.239 6.56546 124.978 6.47166C125.959 6.35341 126.955 6.47166 127.881 6.81655C128.812 7.16926 129.63 7.76892 130.246 8.55113C130.546 8.95503 130.795 9.39457 130.987 9.85968C131.165 10.3383 131.291 10.8348 131.362 11.3407C131.371 11.3458 131.38 11.3487 131.39 11.3494C131.4 11.35 131.41 11.3482 131.419 11.3442C131.428 11.3402 131.436 11.3341 131.442 11.3265C131.448 11.3188 131.452 11.3097 131.454 11.3001Z" fill="white"/>
<path d="M130.398 11.3002C130.239 10.0745 129.6 8.96183 128.622 8.20633C127.647 7.47647 126.433 7.13973 125.222 7.26296C124.603 7.33622 124.007 7.5384 123.472 7.85643C122.937 8.17445 122.475 8.60123 122.116 9.10912C121.726 9.66816 121.46 10.3039 121.335 10.9739C121.211 11.6439 121.231 12.3327 121.395 12.9942C121.538 13.5771 121.801 14.1239 122.166 14.6005C122.531 15.0771 122.991 15.473 123.516 15.7634C124.551 16.3394 125.766 16.5025 126.917 16.2199C128.011 15.9561 128.984 15.3305 129.677 14.4448C130.351 13.5671 130.744 12.5063 130.804 11.4016C130.805 11.391 130.805 11.3801 130.802 11.3697C130.799 11.3593 130.794 11.3496 130.788 11.3411C130.781 11.3326 130.773 11.3255 130.763 11.3202C130.754 11.3149 130.744 11.3116 130.733 11.3103C130.71 11.3126 130.688 11.3229 130.671 11.3396C130.654 11.3562 130.644 11.3782 130.642 11.4016C130.557 12.2612 130.255 13.0851 129.763 13.7952C129.271 14.5053 128.606 15.078 127.83 15.4591C127.27 15.7497 126.653 15.9156 126.022 15.9454C125.391 15.9751 124.761 15.8681 124.176 15.6316C123.583 15.3885 123.052 15.0138 122.625 14.5358C122.198 14.0578 121.885 13.4891 121.71 12.8725C121.533 12.2534 121.494 11.6036 121.594 10.9678C121.694 10.332 121.931 9.72554 122.288 9.19028C122.624 8.69762 123.063 8.28376 123.575 7.97726C124.087 7.67077 124.659 7.47897 125.252 7.41511C126.026 7.34664 126.805 7.44702 127.536 7.70929C128.271 7.97835 128.92 8.44098 129.413 9.04826C129.659 9.35888 129.864 9.69981 130.022 10.0626C130.178 10.4411 130.29 10.8358 130.357 11.2393C130.357 11.2393 130.398 11.3509 130.398 11.3002Z" fill="white"/>
<path d="M159.661 26.0898H0V56.6125H159.661V26.0898Z" fill="#0076DF"/>
<path d="M32.8051 26.0898L21.2238 56.6125H0.598877L12.1903 26.0898H32.8051Z" fill="white"/>
<path d="M75.0702 26.0898L63.489 56.6125H42.864L54.4453 26.0898H75.0702Z" fill="white"/>
<path d="M117.335 26.0898L105.744 56.6125H85.1288L96.7202 26.0898H117.335Z" fill="white"/>
<path d="M159.6 26.0898L148.008 56.6125H127.383L138.975 26.0898H159.6Z" fill="white"/>
<path d="M156.423 84.8225H3.22791V104.136H156.423V84.8225Z" fill="#0076DF"/>
<path d="M34.7134 84.8225L23.599 104.136H3.81653L14.9308 84.8225H34.7134Z" fill="white"/>
<path d="M75.2629 84.8225L64.1486 104.136H44.356L55.4804 84.8225H75.2629Z" fill="white"/>
<path d="M115.812 84.8225L104.698 104.136H84.9156L96.03 84.8225H115.812Z" fill="white"/>
<path d="M156.372 84.8225L145.248 104.136H125.455L136.58 84.8225H156.372Z" fill="white"/>
</svg>
