<svg width="239" height="195" viewBox="0 0 239 195" fill="none" xmlns="http://www.w3.org/2000/svg">
<path d="M60.3624 69.5308L58.8868 80.0869L57.2868 91.4347L42.6855 194.838H18.8263L33.4276 91.4347L35.0276 80.0869L36.5032 69.5308H60.3624Z" fill="#0076DF"/>
<path opacity="0.1" d="M56.9141 69.5308C55.6559 80.0093 54.3044 90.4723 52.9375 100.92L48.728 132.278L44.3165 163.573L42.0487 179.237L39.6721 194.854L41.6137 179.159L43.6952 163.449L47.9047 132.107L52.3162 100.796C53.7763 90.3636 55.2986 79.8851 56.9141 69.5308Z" fill="black"/>
<path opacity="0.1" d="M58.8867 80.0869L57.2868 91.4347H33.4276L35.0275 80.0869H58.8867Z" fill="black"/>
<path d="M178.152 69.5308L179.627 80.0869L181.227 91.4347L195.813 194.838H219.672L205.087 91.4347L203.487 80.0869L202.011 69.5308H178.152Z" fill="#0076DF"/>
<path opacity="0.1" d="M181.678 69.5308C182.936 80.0093 184.287 90.4723 185.654 100.92L189.864 132.278L194.275 163.573L196.543 179.237L198.92 194.854L196.978 179.159L194.943 163.465L190.734 132.122L186.322 100.811C184.815 90.3636 183.293 79.8851 181.678 69.5308Z" fill="black"/>
<path opacity="0.1" d="M179.627 80.0869H203.487L205.087 91.4347H181.227L179.627 80.0869Z" fill="black"/>
<path d="M59.4926 47.844H40.573L42.9341 30.2246H57.1471L59.4926 47.844Z" fill="#0076DF"/>
<path opacity="0.1" d="M59.4926 47.844H40.573L42.9341 30.2246H57.1471L59.4926 47.844Z" fill="black"/>
<path d="M67.6631 17.6194C67.6631 21.1042 66.6291 24.5107 64.6918 27.4082C62.7546 30.3057 60.0011 32.5641 56.7796 33.8976C53.5581 35.2312 50.0132 35.5801 46.5932 34.9003C43.1733 34.2204 40.0319 32.5423 37.5662 30.0782C35.1006 27.6141 33.4214 24.4746 32.7412 21.0568C32.0609 17.639 32.41 14.0963 33.7444 10.8767C35.0788 7.65721 37.3386 4.90544 40.2379 2.96939C43.1371 1.03335 46.5458 0 50.0327 0C52.348 0 54.6406 0.455717 56.7796 1.34118C58.9186 2.22663 60.8621 3.5245 62.4993 5.16061C64.1364 6.79673 65.435 8.73905 66.321 10.8767C67.2071 13.0144 67.6631 15.3056 67.6631 17.6194Z" fill="#0076DF"/>
<path d="M63.4381 17.6195C63.4412 20.2698 62.6576 22.8615 61.1865 25.0667C59.7153 27.2718 57.6228 28.9914 55.1736 30.0077C52.7244 31.0241 50.0285 31.2916 47.4271 30.7764C44.8257 30.2613 42.4357 28.9866 40.5594 27.1136C38.6831 25.2406 37.4048 22.8535 36.8863 20.2544C36.3678 17.6552 36.6323 14.9607 37.6465 12.5118C38.6606 10.0629 40.3788 7.96972 42.5837 6.49695C44.7885 5.02419 47.3809 4.23804 50.0328 4.23804C53.5854 4.23803 56.9928 5.64738 59.5063 8.15644C62.0198 10.6655 63.434 14.0691 63.4381 17.6195Z" fill="white"/>
<path d="M61.2324 16.8434C61.1112 15.2476 60.6608 13.6942 59.9096 12.2809C59.1584 10.8677 58.1227 9.62503 56.8675 8.6313C55.5998 7.65071 54.147 6.93624 52.5961 6.53076C51.0453 6.12528 49.4284 6.03712 47.8426 6.27167C46.266 6.51427 44.7587 7.08795 43.4201 7.95489C42.0814 8.82182 40.9417 9.96236 40.076 11.3014C39.1639 12.7165 38.5658 14.3105 38.3219 15.9761C38.0781 17.6417 38.1942 19.3402 38.6624 20.9571C39.4592 23.7728 41.3421 26.157 43.8972 27.5857C46.3825 29.0008 49.3033 29.4486 52.0988 28.8432C54.8084 28.2735 57.2387 26.7877 58.98 24.6362C60.6963 22.513 61.6871 19.8962 61.8071 17.1693C61.8071 17.0452 61.8071 16.9365 61.6984 16.9365C61.5896 16.9365 61.5741 17.0296 61.5741 17.1693C61.5084 18.2681 61.2995 19.3535 60.9528 20.3983C60.2157 22.4615 58.9456 24.2932 57.2714 25.7074C56.4192 26.4157 55.4859 27.0202 54.4909 27.5081C53.0674 28.1871 51.5164 28.5574 49.9396 28.5948C48.3628 28.6323 46.7959 28.336 45.3418 27.7255C43.8751 27.1095 42.5599 26.1825 41.4871 25.0085C40.4143 23.8345 39.6095 22.4415 39.1284 20.9261C38.6478 19.3794 38.5045 17.7477 38.7081 16.141C38.9118 14.5343 39.4576 12.9899 40.309 11.6118C41.1372 10.2912 42.24 9.1641 43.5426 8.30697C44.8452 7.44985 46.317 6.88279 47.8582 6.64427C49.9343 6.31127 52.062 6.54681 54.0149 7.32585C55.9678 8.10488 57.6729 9.3983 58.949 11.0685C59.5875 11.922 60.1098 12.8564 60.5023 13.8472C60.8509 14.8527 61.0854 15.8942 61.2013 16.952C61.2177 16.9398 61.2296 16.9225 61.2352 16.9029C61.2408 16.8833 61.2398 16.8624 61.2324 16.8434Z" fill="#0076DF"/>
<path d="M59.6634 16.8588C59.5444 15.4925 59.1468 14.1652 58.4949 12.9584C57.8431 11.7516 56.9509 10.6911 55.8733 9.84205C54.7809 9.00062 53.5306 8.38703 52.1964 8.03769C50.8623 7.68836 49.4715 7.61042 48.1066 7.80845C46.7523 8.00725 45.4555 8.49047 44.3016 9.22628C43.1477 9.96209 42.1628 10.9338 41.4117 12.0775C40.6082 13.2978 40.0759 14.6762 39.8508 16.1196C39.6258 17.563 39.7131 19.0379 40.1069 20.4447C40.444 21.6609 41.0182 22.7986 41.7966 23.7923C42.575 24.786 43.5422 25.6161 44.6427 26.2351C46.8198 27.4507 49.3657 27.8315 51.8035 27.3062C54.1532 26.7962 56.2547 25.4911 57.7528 23.6116C59.2358 21.7677 60.0951 19.5012 60.2071 17.1382C60.2071 17.0295 60.2071 16.9364 60.0983 16.9364C59.9896 16.9364 59.9741 17.014 59.9741 17.1382C59.8402 19.0355 59.2026 20.8628 58.1268 22.4318C57.051 24.0008 55.5761 25.2547 53.8539 26.0643C52.628 26.6613 51.2889 26.9907 49.9258 27.0309C48.5626 27.071 47.2065 26.821 45.9475 26.2972C44.6779 25.7596 43.5409 24.9519 42.6154 23.9305C41.6899 22.909 40.9982 21.6984 40.5885 20.3827C40.1774 19.039 40.0603 17.6227 40.2453 16.2299C40.4302 14.8371 40.9128 13.5003 41.6603 12.3103C42.3812 11.1863 43.3354 10.2304 44.4584 9.50721C45.5813 8.78404 46.8467 8.31056 48.1687 8.11889C49.9373 7.84998 51.7455 8.05624 53.4079 8.71643C55.0704 9.37662 56.5271 10.467 57.6285 11.8757C58.1622 12.6091 58.6006 13.4071 58.9333 14.2508C59.242 15.1097 59.4556 15.9999 59.5702 16.9053L59.6634 16.8588Z" fill="#0076DF"/>
<path d="M58.0947 16.8743C57.9823 15.7388 57.6392 14.6382 57.0863 13.6399C56.5334 12.6416 55.7824 11.7666 54.8793 11.0685C53.0634 9.67195 50.7675 9.05223 48.4951 9.34533C47.3595 9.49621 46.2686 9.88542 45.2942 10.4874C44.3197 11.0894 43.4837 11.8905 42.8409 12.8382C42.1468 13.8641 41.6809 15.0268 41.4746 16.2479C41.2682 17.469 41.3263 18.7202 41.6449 19.917C41.9189 20.9597 42.4016 21.936 43.0637 22.7872C43.7258 23.6383 44.5536 24.3465 45.4971 24.869C47.3497 25.9164 49.5277 26.2321 51.6017 25.7539C53.5854 25.3249 55.3618 24.229 56.6345 22.6492C57.8751 21.0808 58.597 19.1658 58.7005 17.1693C58.7005 17.0762 58.7005 16.9985 58.5917 16.9985C58.483 16.9985 58.4675 16.9985 58.4675 17.1693C58.3386 18.7625 57.7948 20.2943 56.8901 21.6124C55.9854 22.9305 54.7513 23.989 53.3104 24.6828C52.2782 25.1957 51.148 25.4818 49.996 25.522C48.8439 25.5621 47.6965 25.3554 46.6311 24.9156C45.5535 24.4585 44.5914 23.7671 43.8149 22.8917C43.0383 22.0162 42.4668 20.9788 42.1419 19.8549C41.8044 18.7207 41.7171 17.5268 41.8861 16.3556C42.055 15.1844 42.4762 14.0638 43.1205 13.071C43.7323 12.1454 44.5356 11.3617 45.4761 10.7726C46.4166 10.1835 47.4725 9.80266 48.5727 9.65582C50.0324 9.4839 51.5121 9.65942 52.891 10.1681C54.2756 10.6889 55.4901 11.5804 56.4015 12.745C56.8524 13.3465 57.2231 14.0041 57.5044 14.701C57.7757 15.4127 57.9684 16.1519 58.0791 16.9054C58.0791 16.9054 58.1102 16.9054 58.0947 16.8743Z" fill="#0076DF"/>
<path d="M56.5257 16.8898C56.422 15.9758 56.1347 15.0922 55.6809 14.2919C55.2271 13.4916 54.6163 12.7913 53.885 12.2327C52.4353 11.1414 50.6269 10.6369 48.8212 10.82C47.894 10.9221 46.9992 11.2199 46.1958 11.6936C45.3925 12.1672 44.699 12.806 44.1612 13.5677C43.5755 14.3987 43.1752 15.3457 42.9876 16.3448C42.8 17.3438 42.8294 18.3714 43.0738 19.3581C43.2839 20.2191 43.6679 21.0281 44.2021 21.7356C44.7363 22.443 45.4096 23.0338 46.1805 23.4718C47.7159 24.3305 49.5203 24.5747 51.2288 24.1549C52.867 23.7726 54.3217 22.8345 55.3452 21.5003C56.3453 20.2147 56.9304 18.6554 57.0228 17.0295C57.0228 16.9519 57.0228 16.8898 56.9141 16.8898C56.8797 16.8936 56.848 16.91 56.8251 16.9358C56.8021 16.9616 56.7896 16.995 56.7898 17.0295C56.6716 18.3181 56.2237 19.5547 55.4893 20.6204C54.7548 21.6861 53.7584 22.5451 52.5958 23.1148C51.7633 23.5513 50.8456 23.8011 49.9066 23.8467C48.9676 23.8923 48.03 23.7326 47.1591 23.3787C46.3039 23.009 45.5405 22.4557 44.9231 21.7582C44.3056 21.0607 43.8493 20.236 43.5864 19.3425C43.3233 18.4184 43.2647 17.448 43.415 16.499C43.5652 15.5499 43.9206 14.645 44.4563 13.8471C44.9577 13.1167 45.6118 12.5038 46.3735 12.0508C47.1352 11.5978 47.9862 11.3156 48.8678 11.2236C50.0198 11.121 51.1804 11.2693 52.2696 11.6583C53.3666 12.059 54.3334 12.7514 55.0656 13.6608C55.4349 14.1379 55.7428 14.6594 55.9821 15.2132C56.1987 15.7876 56.365 16.3798 56.4791 16.9829C56.4791 16.9829 56.5413 16.9053 56.5257 16.8898Z" fill="#0076DF"/>
<path d="M197.522 47.844H178.602L180.963 30.2246H195.176L197.522 47.844Z" fill="#0076DF"/>
<path opacity="0.1" d="M197.522 47.844H178.602L180.963 30.2246H195.176L197.522 47.844Z" fill="black"/>
<path d="M205.692 17.6194C205.692 21.1042 204.658 24.5107 202.721 27.4082C200.784 30.3057 198.03 32.5641 194.809 33.8976C191.587 35.2312 188.042 35.5801 184.622 34.9003C181.203 34.2204 178.061 32.5423 175.595 30.0782C173.13 27.6141 171.451 24.4746 170.77 21.0568C170.09 17.639 170.439 14.0963 171.774 10.8767C173.108 7.65721 175.368 4.90544 178.267 2.96939C181.166 1.03335 184.575 0 188.062 0C190.377 0 192.67 0.455717 194.809 1.34118C196.948 2.22663 198.891 3.5245 200.529 5.16061C202.166 6.79673 203.464 8.73905 204.35 10.8767C205.236 13.0144 205.692 15.3056 205.692 17.6194Z" fill="#0076DF"/>
<path d="M201.467 17.6195C201.47 20.2698 200.687 22.8615 199.216 25.0667C197.745 27.2718 195.652 28.9914 193.203 30.0077C190.754 31.0241 188.058 31.2916 185.456 30.7764C182.855 30.2613 180.465 28.9866 178.589 27.1136C176.712 25.2406 175.434 22.8535 174.915 20.2544C174.397 17.6552 174.662 14.9607 175.676 12.5118C176.69 10.0629 178.408 7.96972 180.613 6.49695C182.818 5.02419 185.41 4.23804 188.062 4.23804C191.615 4.23803 195.022 5.64738 197.535 8.15644C200.049 10.6655 201.463 14.0691 201.467 17.6195Z" fill="white"/>
<path d="M199.261 16.8434C199.14 15.2476 198.69 13.6942 197.939 12.2809C197.188 10.8677 196.152 9.62503 194.897 8.6313C193.629 7.65071 192.176 6.93624 190.625 6.53076C189.074 6.12528 187.457 6.03712 185.872 6.27167C184.295 6.51427 182.788 7.08795 181.449 7.95489C180.11 8.82182 178.971 9.96236 178.105 11.3014C177.193 12.7165 176.595 14.3105 176.351 15.9761C176.107 17.6417 176.223 19.3402 176.691 20.9571C177.488 23.7728 179.371 26.157 181.926 27.5857C184.412 29.0008 187.332 29.4486 190.128 28.8432C192.837 28.2735 195.268 26.7877 197.009 24.6362C198.732 22.5169 199.724 19.8978 199.836 17.1693C199.836 17.0452 199.836 16.9365 199.727 16.9365C199.619 16.9365 199.603 17.0296 199.603 17.1693C199.545 18.269 199.336 19.3555 198.982 20.3983C198.245 22.4615 196.975 24.2932 195.3 25.7074C194.448 26.4157 193.515 27.0202 192.52 27.5081C191.097 28.1871 189.545 28.5574 187.969 28.5948C186.392 28.6323 184.825 28.336 183.371 27.7255C181.904 27.1095 180.589 26.1825 179.516 25.0085C178.443 23.8345 177.639 22.4415 177.158 20.9261C176.677 19.3794 176.534 17.7477 176.737 16.141C176.941 14.5343 177.487 12.9899 178.338 11.6118C179.166 10.2912 180.269 9.1641 181.572 8.30697C182.874 7.44985 184.346 6.88279 185.887 6.64427C187.963 6.31127 190.091 6.54681 192.044 7.32585C193.997 8.10488 195.702 9.3983 196.978 11.0685C197.617 11.922 198.139 12.8564 198.531 13.8472C198.88 14.8527 199.114 15.8942 199.23 16.952C199.253 16.9203 199.264 16.8821 199.261 16.8434Z" fill="#0076DF"/>
<path d="M197.693 16.8588C197.574 15.4925 197.176 14.1652 196.524 12.9584C195.872 11.7516 194.98 10.6911 193.902 9.84205C192.81 9.00062 191.56 8.38703 190.226 8.03769C188.891 7.68836 187.501 7.61042 186.136 7.80845C184.781 8.00725 183.485 8.49047 182.331 9.22628C181.177 9.96209 180.192 10.9338 179.441 12.0775C178.637 13.2978 178.105 14.6762 177.88 16.1196C177.655 17.563 177.742 19.0379 178.136 20.4447C178.473 21.6609 179.047 22.7986 179.826 23.7923C180.604 24.786 181.571 25.6161 182.672 26.2351C184.849 27.4507 187.395 27.8315 189.833 27.3062C192.182 26.7962 194.284 25.4911 195.782 23.6116C197.265 21.7677 198.124 19.5012 198.236 17.1382C198.236 17.0295 198.236 16.9364 198.128 16.9364C198.019 16.9364 198.003 17.014 198.003 17.1382C197.869 19.0355 197.232 20.8628 196.156 22.4318C195.08 24.0008 193.605 25.2547 191.883 26.0643C190.657 26.6613 189.318 26.9907 187.955 27.0309C186.592 27.071 185.236 26.821 183.977 26.2972C182.704 25.7614 181.564 24.9545 180.636 23.933C179.708 22.9115 179.014 21.6999 178.602 20.3827C178.191 19.039 178.074 17.6227 178.259 16.2299C178.444 14.8371 178.926 13.5003 179.674 12.3103C180.395 11.1863 181.349 10.2304 182.472 9.50721C183.595 8.78404 184.86 8.31056 186.182 8.11889C187.951 7.84998 189.759 8.05624 191.422 8.71643C193.084 9.37662 194.541 10.467 195.642 11.8757C196.176 12.6091 196.614 13.4071 196.947 14.2508C197.256 15.1097 197.469 15.9999 197.584 16.9053C197.584 16.9053 197.708 16.8898 197.693 16.8588Z" fill="#0076DF"/>
<path d="M196.124 16.8743C196.011 15.7388 195.668 14.6382 195.115 13.6399C194.562 12.6416 193.811 11.7666 192.908 11.0685C191.092 9.67195 188.796 9.05223 186.524 9.34533C185.388 9.49621 184.298 9.88542 183.323 10.4874C182.349 11.0894 181.513 11.8905 180.87 12.8382C180.176 13.8641 179.71 15.0268 179.504 16.2479C179.297 17.469 179.355 18.7202 179.674 19.917C179.948 20.9597 180.431 21.936 181.093 22.7872C181.755 23.6383 182.583 24.3465 183.526 24.869C185.379 25.9164 187.557 26.2321 189.631 25.7539C191.614 25.3249 193.391 24.229 194.664 22.6492C195.91 21.0844 196.633 19.1673 196.729 17.1693C196.729 17.0762 196.729 16.9985 196.621 16.9985C196.512 16.9985 196.496 16.9985 196.496 17.1693C196.368 18.7625 195.824 20.2943 194.919 21.6124C194.014 22.9305 192.78 23.989 191.339 24.6828C190.307 25.1957 189.177 25.4818 188.025 25.522C186.873 25.5621 185.726 25.3554 184.66 24.9156C183.583 24.4687 182.619 23.7886 181.838 22.9241C181.056 22.0597 180.476 21.0326 180.14 19.917C179.802 18.7828 179.715 17.5889 179.884 16.4177C180.053 15.2465 180.474 14.1259 181.118 13.1331C181.73 12.2076 182.534 11.4238 183.474 10.8347C184.415 10.2456 185.47 9.86472 186.571 9.71788C188.03 9.54596 189.51 9.72152 190.889 10.2302C191.944 10.6097 192.906 11.2106 193.71 11.9924C194.514 12.7743 195.141 13.719 195.549 14.7631C195.82 15.4748 196.013 16.214 196.124 16.9675C196.124 16.9675 196.139 16.9054 196.124 16.8743Z" fill="#0076DF"/>
<path d="M194.555 16.8898C194.451 15.9759 194.164 15.0922 193.71 14.292C193.256 13.4917 192.645 12.7913 191.914 12.2327C190.465 11.14 188.656 10.6354 186.85 10.8201C185.923 10.9222 185.028 11.2199 184.225 11.6936C183.422 12.1673 182.728 12.8061 182.19 13.5677C181.607 14.4001 181.209 15.3471 181.021 16.3457C180.834 17.3442 180.862 18.3712 181.103 19.3581C181.313 20.2192 181.697 21.0282 182.231 21.7356C182.765 22.443 183.439 23.0339 184.21 23.4719C185.745 24.3306 187.549 24.5747 189.258 24.1549C190.896 23.7727 192.351 22.8345 193.374 21.5004C194.374 20.2147 194.96 18.6554 195.052 17.0296C195.052 16.9519 195.052 16.8898 194.943 16.8898C194.909 16.8937 194.877 16.91 194.854 16.9358C194.831 16.9616 194.819 16.995 194.819 17.0296C194.701 18.3182 194.253 19.5548 193.518 20.6205C192.784 21.6861 191.788 22.5451 190.625 23.1148C189.793 23.5514 188.875 23.8012 187.936 23.8468C186.997 23.8923 186.059 23.7326 185.188 23.3787C184.304 23.0141 183.514 22.4548 182.877 21.7425C182.24 21.0302 181.771 20.1833 181.507 19.265C181.244 18.3408 181.185 17.3705 181.335 16.4214C181.486 15.4724 181.841 14.5674 182.377 13.7696C182.878 13.0391 183.532 12.4262 184.294 11.9732C185.056 11.5202 185.907 11.238 186.788 11.1461C187.94 11.0435 189.101 11.1918 190.19 11.5807C191.287 11.9814 192.254 12.6738 192.986 13.5833C193.355 14.0604 193.663 14.5819 193.902 15.1357C194.119 15.7101 194.285 16.3022 194.4 16.9053C194.4 16.9053 194.57 16.9054 194.555 16.8898Z" fill="#0076DF"/>
<path d="M238.11 38.856H0.388245V84.2939H238.11V38.856Z" fill="white"/>
<path d="M238.514 84.6819H-6.10352e-05V38.4678H238.514V84.6819ZM0.854265 83.9057H237.738V39.244H0.776606L0.854265 83.9057Z" fill="#263238"/>
<path d="M49.2562 38.856L31.9986 84.3094H1.30475L18.5467 38.856H49.2562Z" fill="#0076DF"/>
<path d="M112.182 38.856L94.9397 84.3094H64.2147L81.4723 38.856H112.182Z" fill="#0076DF"/>
<path d="M175.107 38.856L157.85 84.3094H127.156L144.413 38.856H175.107Z" fill="#0076DF"/>
<path d="M238.048 38.856L220.791 84.3094H190.081L207.323 38.856H238.048Z" fill="#0076DF"/>
<path d="M233.311 139.838H5.20355V168.603H233.311V139.838Z" fill="white"/>
<path d="M233.699 168.991H4.86188V139.496H233.699V168.991ZM5.59195 168.215H232.922V140.272H5.59195V168.215Z" fill="#263238"/>
<path d="M52.0831 139.838L35.5246 168.603H6.07336L22.6319 139.838H52.0831Z" fill="#0076DF"/>
<path d="M112.477 139.838L95.9183 168.603H66.4515L83.0101 139.838H112.477Z" fill="#0076DF"/>
<path d="M172.839 139.838L156.296 168.603H126.83L143.388 139.838H172.839Z" fill="#0076DF"/>
<path d="M233.233 139.838L216.674 168.603H187.208L203.766 139.838H233.233Z" fill="#0076DF"/>
<path d="M155.238 70.1503C159.981 50.2858 147.712 30.3402 127.836 25.6005C107.959 20.8608 88.0008 33.1218 83.2581 52.9863C78.5155 72.8508 90.7841 92.7964 110.661 97.5361C130.538 102.276 150.496 90.0148 155.238 70.1503Z" fill="white"/>
<path d="M119.249 98.9326C111.854 98.9326 104.625 96.7407 98.4757 92.6343C92.3268 88.5278 87.5346 82.6912 84.7052 75.8626C81.8758 69.034 81.1363 61.5203 82.5802 54.2716C84.0241 47.023 87.5866 40.3651 92.817 35.1401C98.0475 29.915 104.711 26.3575 111.965 24.9175C119.218 23.4775 126.737 24.2197 133.568 27.0502C140.4 29.8807 146.238 34.6723 150.344 40.8191C154.451 46.9659 156.641 54.1917 156.638 61.5825C156.63 71.4885 152.688 80.9863 145.677 87.9894C138.667 94.9926 129.161 98.9285 119.249 98.9326ZM119.249 24.9932C112.008 24.9932 104.93 27.1391 98.9088 31.1596C92.8879 35.1801 88.1953 40.8946 85.4242 47.5804C82.6531 54.2662 81.9281 61.6231 83.3408 68.7208C84.7534 75.8184 88.2404 82.338 93.3607 87.4551C98.481 92.5723 105.005 96.0571 112.107 97.4689C119.209 98.8807 126.57 98.1561 133.26 95.3867C139.95 92.6174 145.668 87.9276 149.691 81.9105C153.714 75.8934 155.861 68.8192 155.861 61.5825C155.853 51.8809 151.993 42.5791 145.129 35.719C138.265 28.859 128.957 25.0014 119.249 24.9932Z" fill="#263238"/>
<path d="M149.771 68.8458C153.785 52.0071 143.38 35.1047 126.531 31.0932C109.682 27.0816 92.7688 37.4801 88.7548 54.3187C84.7408 71.1574 95.1457 88.0599 111.995 92.0714C128.844 96.0829 145.757 85.6845 149.771 68.8458Z" fill="#0076DF"/>
<path d="M138.914 57.9346H99.584V65.2152H138.914V57.9346Z" fill="white"/>
</svg>
