<svg width="173" height="87" viewBox="0 0 173 87" fill="none" xmlns="http://www.w3.org/2000/svg">
<path d="M93.8196 71.1608L101.68 17.1072L103.963 18.1317L107.598 19.7773L123.38 26.9182L137.499 33.2829L146.819 37.4898L160.97 43.8856L168.737 47.3784C170.078 48.1068 171.164 49.2285 171.849 50.5924C172.533 51.9563 172.783 53.4969 172.565 55.007C172.346 56.5171 171.67 57.9241 170.628 59.0387C169.585 60.1533 168.226 60.9219 166.733 61.2411L163.456 61.6913L158.299 62.3899L142.936 64.47L132.808 65.8516L117.43 67.9473L111 68.8322L93.8196 71.1608Z" fill="#FF8920"/>
<g style="mix-blend-mode:multiply" opacity="0.1">
<path d="M104.351 18.613C103.574 20.6452 102.607 22.5995 101.462 24.45C96.6622 31.9324 93.1982 47.2388 95.8078 64.8116C95.9578 66.7112 96.3492 68.584 96.9728 70.3846L100.266 70.1673C100.266 70.1673 115.597 36.5429 165.723 45.8882L161.063 43.7459L146.928 37.3812L137.608 33.1743L123.473 26.7785L104.351 18.613Z" fill="black"/>
</g>
<path d="M142.92 64.47L146.835 37.4897L160.986 43.8855L158.283 62.3898L142.92 64.47Z" fill="white"/>
<path d="M117.415 67.9473L123.379 26.9026L137.53 33.2984L132.793 65.8516L117.415 67.9473Z" fill="white"/>
<path d="M63.7593 75.8255H11.1013L11.7537 73.497L12.8255 69.8023L17.4855 53.7819L21.6174 39.4224L24.3357 29.9685L28.4676 15.609L30.7354 7.7385C31.24 6.35688 32.1574 5.16368 33.3633 4.32061C34.5692 3.47755 36.0052 3.02539 37.4769 3.02539C38.9486 3.02539 40.3847 3.47755 41.5906 4.32061C42.7964 5.16368 43.7138 6.35688 44.2184 7.7385L45.1038 10.8432L46.4862 15.6401L50.6181 29.9995L53.3365 39.4534L57.4683 53.8129L59.1925 59.8206L63.7593 75.8255Z" fill="#FF8920"/>
<path d="M74.6102 79.4727C75.435 80.8051 74.4767 82.5254 72.9097 82.5254H3.73704C2.13965 82.5254 1.18686 80.7451 2.07293 79.416L6.40627 72.916C6.7772 72.3596 7.40166 72.0254 8.07037 72.0254H68.8859C69.5785 72.0254 70.2218 72.3838 70.5864 72.9727L74.6102 79.4727Z" fill="#FF8920"/>
<path d="M50.7824 29.3693H24.5L28.6319 15.0254H46.6505L50.7824 29.3693Z" fill="white"/>
<path d="M57.4838 53.782H17.501L21.6328 39.4226H53.3519L57.4838 53.782Z" fill="white"/>
<path d="M10.418 72.1621C14.6806 74.0741 19.1697 75.4356 23.7766 76.2138C28.3351 77.0077 32.9595 77.3612 37.5858 77.2694C39.9002 77.1142 42.2457 77.0987 44.5136 76.7416C45.6631 76.5864 46.8281 76.5088 47.962 76.307C49.0959 76.1052 50.2454 75.8723 51.3949 75.686C51.9696 75.5773 52.5444 75.4842 53.1191 75.36L54.8122 74.9409L58.214 74.1181C60.4664 73.5127 62.6876 72.752 64.9866 72.1621C62.8585 73.1712 60.7149 74.1802 58.5247 75.0495L55.154 76.1983L53.4764 76.7571C52.9016 76.9279 52.3269 77.0521 51.7521 77.2073L48.2727 78.0301C47.1232 78.294 45.9271 78.4182 44.7621 78.62C42.3986 78.9617 40.0187 79.1793 37.6324 79.272C32.8584 79.3548 28.0932 78.8332 23.4504 77.7196C18.8013 76.6835 14.3833 74.7996 10.418 72.1621Z" fill="#B44818"/>
<g style="mix-blend-mode:multiply" opacity="0.1">
<path d="M12.2354 73.0623C14.2795 73.523 16.2764 74.1726 18.2002 75.0028C25.9669 78.5422 41.0808 79.6599 57.5617 74.7855C59.3478 74.3783 61.0754 73.7472 62.7032 72.9071L62.0353 69.8024C62.0353 69.8024 27.8619 59.8672 29.8191 10.8123L28.4367 15.6091L24.3048 29.9685L21.5864 39.4225L17.4546 53.7819L12.2354 73.0623Z" fill="black"/>
</g>
<path d="M81.8305 72.427C80.421 71.6055 79.6516 70.0103 79.8863 68.3958L88.975 5.86583C89.3828 3.06026 92.4991 1.55766 94.9482 2.98567L113.933 14.055C115.342 14.8769 116.111 16.4723 115.876 18.0869L106.774 80.6042C106.365 83.4089 103.25 84.9109 100.801 83.4837L81.8305 72.427Z" fill="#FF8920"/>
<path d="M105.827 44.817C104.351 57.95 99.6134 68.1957 95.202 67.6989C90.7905 67.2021 88.445 56.1648 89.9206 43.0317C91.3963 29.8987 96.134 19.6685 100.561 20.1653C104.988 20.6621 107.302 31.6994 105.827 44.817Z" fill="#B44818"/>
</svg>
