<svg width="582" height="578" viewBox="0 0 582 578" fill="none" xmlns="http://www.w3.org/2000/svg">
<path d="M449.353 106.006L482.538 141.176L479.114 144.403L445.928 109.233L449.353 106.006Z" fill="#263238"/>
<path d="M446.834 141.918H480.821V146.621H446.834V141.918Z" fill="#7E8C96"/>
<path d="M446.834 105.266H480.821V109.97H446.834V105.266Z" fill="#7E8C96"/>
<path d="M479.112 105.993L482.537 109.219L449.357 144.395L445.932 141.168L479.112 105.993Z" fill="#7E8C96"/>
<path d="M449.357 142.654L482.543 177.824L479.119 181.051L445.933 145.881L449.357 142.654Z" fill="#263238"/>
<path d="M446.834 178.569H480.821V183.273H446.834V178.569Z" fill="#7E8C96"/>
<path d="M446.834 141.918H480.821V146.621H446.834V141.918Z" fill="#7E8C96"/>
<path d="M479.12 142.644L482.545 145.871L449.365 181.046L445.94 177.82L479.12 142.644Z" fill="#7E8C96"/>
<path d="M449.362 179.303L482.548 214.473L479.123 217.7L445.937 182.53L449.362 179.303Z" fill="#263238"/>
<path d="M446.834 215.221H480.821V219.924H446.834V215.221Z" fill="#7E8C96"/>
<path d="M446.834 178.569H480.821V183.273H446.834V178.569Z" fill="#7E8C96"/>
<path d="M479.112 179.296L482.536 182.522L449.357 217.698L445.932 214.471L479.112 179.296Z" fill="#7E8C96"/>
<path d="M449.351 215.952L482.537 251.121L479.112 254.348L445.927 219.179L449.351 215.952Z" fill="#263238"/>
<path d="M446.834 251.872H480.821V256.576H446.834V251.872Z" fill="#7E8C96"/>
<path d="M446.834 215.221H480.821V219.924H446.834V215.221Z" fill="#7E8C96"/>
<path d="M479.104 215.947L482.528 219.173L449.349 254.349L445.924 251.122L479.104 215.947Z" fill="#7E8C96"/>
<path d="M449.355 252.616L482.541 287.786L479.117 291.013L445.931 255.843L449.355 252.616Z" fill="#263238"/>
<path d="M446.834 288.524H480.821V293.227H446.834V288.524Z" fill="#7E8C96"/>
<path d="M446.834 251.872H480.821V256.576H446.834V251.872Z" fill="#7E8C96"/>
<path d="M479.106 252.587L482.531 255.813L449.351 290.989L445.927 287.762L479.106 252.587Z" fill="#7E8C96"/>
<path d="M449.344 289.265L482.53 324.434L479.106 327.661L445.92 292.492L449.344 289.265Z" fill="#263238"/>
<path d="M446.834 325.16H480.821V329.863H446.834V325.16Z" fill="#7E8C96"/>
<path d="M446.834 288.524H480.821V293.227H446.834V288.524Z" fill="#7E8C96"/>
<path d="M479.114 289.238L482.539 292.465L449.359 327.64L445.934 324.414L479.114 289.238Z" fill="#7E8C96"/>
<path d="M449.36 325.903L482.546 361.072L479.122 364.299L445.936 329.13L449.36 325.903Z" fill="#263238"/>
<path d="M446.834 361.811H480.821V366.515H446.834V361.811Z" fill="#7E8C96"/>
<path d="M446.834 325.16H480.821V329.863H446.834V325.16Z" fill="#7E8C96"/>
<path d="M479.106 325.874L482.53 329.101L449.351 364.276L445.926 361.049L479.106 325.874Z" fill="#7E8C96"/>
<path d="M449.349 362.536L482.535 397.705L479.111 400.932L445.925 365.763L449.349 362.536Z" fill="#263238"/>
<path d="M446.834 398.463H480.821V403.166H446.834V398.463Z" fill="#7E8C96"/>
<path d="M446.834 361.811H480.821V366.515H446.834V361.811Z" fill="#7E8C96"/>
<path d="M479.098 362.525L482.523 365.752L449.343 400.927L445.918 397.701L479.098 362.525Z" fill="#7E8C96"/>
<path d="M449.338 399.169L482.524 434.338L479.1 437.565L445.914 402.396L449.338 399.169Z" fill="#263238"/>
<path d="M446.834 435.114H480.821V439.818H446.834V435.114Z" fill="#7E8C96"/>
<path d="M446.834 398.463H480.821V403.166H446.834V398.463Z" fill="#7E8C96"/>
<path d="M479.105 399.177L482.53 402.403L449.35 437.579L445.925 434.352L479.105 399.177Z" fill="#7E8C96"/>
<path d="M449.353 435.846L482.526 471.028L479.101 474.253L445.927 439.072L449.353 435.846Z" fill="#263238"/>
<path d="M446.834 471.766H480.821V476.469H446.834V471.766Z" fill="#7E8C96"/>
<path d="M446.834 435.114H480.821V439.818H446.834V435.114Z" fill="#7E8C96"/>
<path d="M479.097 435.844L482.522 439.07L449.342 474.245L445.917 471.019L479.097 435.844Z" fill="#7E8C96"/>
<path d="M449.364 472.486L482.537 507.667L479.112 510.893L445.939 475.712L449.364 472.486Z" fill="#263238"/>
<path d="M446.834 508.417H480.821V513.121H446.834V508.417Z" fill="#7E8C96"/>
<path d="M446.834 471.766H480.821V476.469H446.834V471.766Z" fill="#7E8C96"/>
<path d="M479.1 472.468L482.525 475.695L449.345 510.87L445.92 507.643L479.1 472.468Z" fill="#7E8C96"/>
<path d="M440.031 529.266V507.92H489.054V529.266H440.031Z" fill="#7E8C96"/>
<path d="M477 509V141H489V509H477Z" fill="#7E8C96"/>
<path d="M440.031 509.255V107.191H452.317V509.255H440.031Z" fill="#7E8C96"/>
<path d="M117.108 104.319L153.829 68.1491L463.781 10.4319L557.975 68.4285L560.445 64.4079L464.697 5.46436L151.561 63.7869L113.8 100.951L117.108 104.319Z" fill="#7E8C96"/>
<path d="M426.408 73.2254L464.154 20.7863L500.284 73.1478L508.051 67.7921L464.325 4.42432L418.75 67.7145L426.408 73.2254Z" fill="#707070"/>
<path d="M188.391 72.3549L191.62 75.7776L156.423 108.937L153.194 105.514L188.391 72.3549Z" fill="#263238"/>
<path d="M151.002 73.2253H155.708V107.191H151.002V73.2253Z" fill="#7E8C96"/>
<path d="M187.676 73.2253H192.383V107.191H187.676V73.2253Z" fill="#7E8C96"/>
<path d="M156.43 72.3501L191.627 105.509L188.398 108.932L153.201 75.7727L156.43 72.3501Z" fill="#7E8C96"/>
<path d="M225.074 72.3549L228.302 75.7776L193.105 108.937L189.876 105.514L225.074 72.3549Z" fill="#263238"/>
<path d="M187.676 73.2253H192.383V107.191H187.676V73.2253Z" fill="#7E8C96"/>
<path d="M224.35 73.2253H229.057V107.191H224.35V73.2253Z" fill="#7E8C96"/>
<path d="M193.141 72.2773L228.333 105.443L225.103 108.865L189.912 75.6994L193.141 72.2773Z" fill="#7E8C96"/>
<path d="M261.756 72.3547L264.984 75.7773L229.787 108.937L226.559 105.514L261.756 72.3547Z" fill="#263238"/>
<path d="M224.35 73.2253H229.057V107.191H224.35V73.2253Z" fill="#7E8C96"/>
<path d="M261.025 73.2253H265.731V107.191H261.025V73.2253Z" fill="#7E8C96"/>
<path d="M229.811 72.2746L265.002 105.44L261.773 108.862L226.582 75.6967L229.811 72.2746Z" fill="#7E8C96"/>
<path d="M298.423 72.3544L301.651 75.7771L266.454 108.936L263.225 105.514L298.423 72.3544Z" fill="#263238"/>
<path d="M261.025 73.2253H265.731V107.191H261.025V73.2253Z" fill="#7E8C96"/>
<path d="M297.699 73.2253H302.405V107.191H297.699V73.2253Z" fill="#7E8C96"/>
<path d="M266.48 72.2871L301.672 105.452L298.443 108.874L263.251 75.7092L266.48 72.2871Z" fill="#7E8C96"/>
<path d="M335.094 72.343L338.322 75.7656L303.125 108.925L299.897 105.502L335.094 72.343Z" fill="#263238"/>
<path d="M297.699 73.2253H302.405V107.191H297.699V73.2253Z" fill="#7E8C96"/>
<path d="M334.357 73.2253H339.064V107.191H334.357V73.2253Z" fill="#7E8C96"/>
<path d="M303.15 72.2998L338.341 105.465L335.112 108.887L299.921 75.7219L303.15 72.2998Z" fill="#7E8C96"/>
<path d="M371.761 72.343L374.989 75.7656L339.792 108.925L336.564 105.502L371.761 72.343Z" fill="#263238"/>
<path d="M334.357 73.2253H339.064V107.191H334.357V73.2253Z" fill="#7E8C96"/>
<path d="M371.032 73.2253H375.738V107.191H371.032V73.2253Z" fill="#7E8C96"/>
<path d="M339.82 72.2971L375.011 105.462L371.782 108.884L336.591 75.7192L339.82 72.2971Z" fill="#7E8C96"/>
<path d="M408.443 72.3427L411.671 75.7654L376.474 108.925L373.246 105.502L408.443 72.3427Z" fill="#263238"/>
<path d="M371.032 73.2253H375.738V107.191H371.032V73.2253Z" fill="#7E8C96"/>
<path d="M407.706 73.2253H412.412V107.191H407.706V73.2253Z" fill="#7E8C96"/>
<path d="M376.478 72.299L411.669 105.464L408.44 108.886L373.249 75.7211L376.478 72.299Z" fill="#7E8C96"/>
<path d="M445.11 72.3425L448.338 75.7651L413.141 108.924L409.913 105.502L445.11 72.3425Z" fill="#263238"/>
<path d="M407.706 73.2253H412.412V107.191H407.706V73.2253Z" fill="#7E8C96"/>
<path d="M444.38 73.2253H449.086V107.191H444.38V73.2253Z" fill="#7E8C96"/>
<path d="M413.148 72.2961L448.339 105.461L445.11 108.884L409.919 75.7182L413.148 72.2961Z" fill="#7E8C96"/>
<path d="M481.792 72.3422L485.02 75.7649L449.823 108.924L446.595 105.501L481.792 72.3422Z" fill="#263238"/>
<path d="M444.38 73.2253H449.086V107.191H444.38V73.2253Z" fill="#7E8C96"/>
<path d="M481.054 73.2253H485.761V107.191H481.054V73.2253Z" fill="#7E8C96"/>
<path d="M449.833 72.2934L485.024 105.459L481.795 108.881L446.604 75.7155L449.833 72.2934Z" fill="#7E8C96"/>
<path d="M518.459 72.3422L521.687 75.7649L486.49 108.924L483.261 105.501L518.459 72.3422Z" fill="#263238"/>
<path d="M481.054 73.2253H485.761V107.191H481.054V73.2253Z" fill="#7E8C96"/>
<path d="M517.728 73.2253H522.435V107.191H517.728V73.2253Z" fill="#7E8C96"/>
<path d="M486.503 72.2905L521.694 105.456L518.465 108.878L483.274 75.7126L486.503 72.2905Z" fill="#7E8C96"/>
<path d="M554.277 72.5978L557.524 76.0315L522.214 109.387L518.966 105.953L554.277 72.5978Z" fill="#263238"/>
<path d="M517.728 73.2253H522.435V107.191H517.728V73.2253Z" fill="#7E8C96"/>
<path d="M554.403 73.2253H559.109V107.191H554.403V73.2253Z" fill="#7E8C96"/>
<path d="M523.172 72.3032L558.363 105.469L555.134 108.891L519.943 75.7253L523.172 72.3032Z" fill="#7E8C96"/>
<path d="M560.492 64.3303H581.819V113.323H560.492V64.3303Z" fill="#263238"/>
<path d="M539.133 64.3303H560.492V113.323H539.133V64.3303Z" fill="#7E8C96"/>
<path d="M510.94 113.323H551.886V137.757H510.94V113.323Z" fill="#707070"/>
<path d="M113.8 101.044H560.492V113.323H113.8V101.044Z" fill="#7E8C96"/>
<path d="M139.29 76.6096H560.492V64.3303H151.297L139.29 76.6096Z" fill="#7E8C96"/>
<path d="M142.971 73.2253H147.678V107.191H142.971V73.2253Z" fill="#7E8C96"/>
<path d="M315.018 243.858L285.505 239.139L255.992 234.575L196.903 225.68L196.748 225.665L196.592 225.696L98.2663 251.186L49.1188 264.055L0.0334268 277.095L49.3207 264.815L98.5614 252.35L196.981 227.186L196.67 227.201L255.821 235.724L285.396 239.869L315.018 243.858Z" fill="#263238"/>
<path d="M214.844 118.337H219.55V187.883H214.844V118.337Z" fill="#263238"/>
<path d="M174.97 119.89H179.676V189.436H174.97V119.89Z" fill="#263238"/>
<path d="M165.852 113.323H228.001V123.336H165.852V113.323Z" fill="#707070"/>
<path d="M194.573 199.573L195.101 210.02L196.654 208.219C194.973 208.652 193.37 209.343 191.901 210.269C190.387 211.179 189.109 212.434 188.173 213.932C187.272 215.443 186.817 217.177 186.861 218.936C186.905 220.694 187.446 222.404 188.422 223.867C189.334 225.249 190.585 226.374 192.057 227.135C193.528 227.896 195.169 228.268 196.825 228.214C198.391 228.086 199.906 227.6 201.253 226.792C202.6 225.984 203.742 224.877 204.592 223.557C203.669 224.731 202.489 225.677 201.142 226.323C199.796 226.969 198.319 227.297 196.825 227.283C195.405 227.195 194.031 226.747 192.833 225.981C191.634 225.215 190.651 224.156 189.975 222.905C189.345 221.742 189.055 220.425 189.137 219.105C189.22 217.785 189.672 216.514 190.441 215.438C192.203 213.433 194.641 212.145 197.291 211.821L198.72 211.573L198.798 210.02L199.31 199.573H194.573Z" fill="#263238"/>
<path d="M165.852 178.15V195.195L196.934 202.569L228.001 195.195V178.15H165.852Z" fill="#707070"/>
<path d="M213.741 188.147C213.738 188.863 213.947 189.564 214.343 190.161C214.739 190.758 215.303 191.224 215.964 191.5C216.625 191.776 217.354 191.85 218.057 191.712C218.76 191.575 219.406 191.231 219.914 190.726C220.422 190.221 220.768 189.576 220.909 188.874C221.05 188.172 220.979 187.444 220.705 186.782C220.432 186.121 219.968 185.555 219.373 185.157C218.777 184.758 218.077 184.546 217.36 184.546C216.886 184.544 216.415 184.636 215.976 184.816C215.537 184.996 215.138 185.261 214.802 185.595C214.466 185.93 214.199 186.328 214.017 186.766C213.835 187.204 213.741 187.673 213.741 188.147Z" fill="#263238"/>
<path d="M172.904 188.147C172.904 188.86 173.115 189.556 173.511 190.148C173.907 190.741 174.47 191.202 175.129 191.475C175.787 191.747 176.512 191.819 177.211 191.68C177.91 191.541 178.552 191.198 179.056 190.694C179.56 190.19 179.903 189.549 180.042 188.85C180.181 188.151 180.11 187.427 179.837 186.769C179.564 186.111 179.102 185.549 178.51 185.153C177.917 184.757 177.22 184.546 176.508 184.546C175.552 184.546 174.635 184.925 173.959 185.601C173.284 186.276 172.904 187.192 172.904 188.147Z" fill="#263238"/>
<path d="M326.319 330.081L9.3725 364.156L0.000153657 277.086L316.947 243.012L326.319 330.081Z" fill="#D6DDE2"/>
<path d="M151.422 317.844L6.0917 333.476L74.5626 286.595L151.422 317.844Z" fill="#D6DDE2"/>
<path d="M222.983 310.191L94.1033 324.053L155.802 291.687L222.983 310.191Z" fill="#D6DDE2"/>
<path d="M6.11335 333.499L323.06 299.424L324.726 314.905L7.77975 348.98L6.11335 333.499Z" fill="#D6DDE2"/>
<path opacity="0.1" d="M8.11322 351.075L325.06 317L326.726 332.481L9.77963 366.555L8.11322 351.075Z" fill="black"/>
<path d="M456.247 7.94814C456.247 9.52013 456.714 11.0568 457.588 12.3639C458.462 13.671 459.704 14.6897 461.157 15.2913C462.61 15.8928 464.209 16.0502 465.752 15.7436C467.295 15.4369 468.712 14.6799 469.824 13.5683C470.936 12.4568 471.694 11.0405 472.001 9.49875C472.307 7.95696 472.15 6.35885 471.548 4.90652C470.946 3.45419 469.927 2.21285 468.619 1.3395C467.311 0.466147 465.773 0 464.2 0C462.091 0 460.068 0.837387 458.577 2.32795C457.085 3.81852 456.247 5.84016 456.247 7.94814Z" fill="#A6A6A6"/>
<path d="M460.519 7.94824C460.516 8.68642 460.732 9.40888 461.141 10.0239C461.549 10.639 462.131 11.1189 462.813 11.4028C463.495 11.6868 464.246 11.7618 464.97 11.6186C465.695 11.4753 466.361 11.1202 466.883 10.5982C467.405 10.0762 467.761 9.41093 467.904 8.68678C468.047 7.96262 467.972 7.21223 467.688 6.53082C467.404 5.84941 466.924 5.26769 466.308 4.85949C465.693 4.45129 464.97 4.235 464.231 4.23807C463.247 4.23807 462.303 4.62896 461.606 5.32475C460.91 6.02055 460.519 6.96424 460.519 7.94824Z" fill="#7E8C96"/>
<path d="M430.229 529.266H498.855V545.472H430.229V529.266Z" fill="#707070"/>
<path d="M415.348 545.472H513.736V577.265H415.348V545.472Z" fill="#7E8C96"/>
<path d="M424.637 141.67H498.079V60.3718H450.034C445.974 60.3703 442.052 61.8431 438.997 64.516C435.943 67.1889 433.964 70.8799 433.429 74.902L424.637 141.67Z" fill="#0076DF"/>
<path d="M444.628 116.987H479.05C479.425 116.994 479.798 116.937 480.153 116.816C480.951 116.576 481.651 116.086 482.149 115.417C482.647 114.749 482.917 113.939 482.918 113.106V69.6858H458.438C457.614 69.6764 456.791 69.7544 455.983 69.9187C454.144 70.2328 452.392 70.931 450.842 71.9678C449.765 72.6852 448.802 73.559 447.984 74.5603C446.304 76.5397 445.226 78.9583 444.877 81.5304L440.745 112.578C440.674 113.129 440.722 113.689 440.885 114.22C441.048 114.752 441.322 115.242 441.69 115.659C442.057 116.077 442.509 116.411 443.016 116.64C443.523 116.868 444.072 116.987 444.628 116.987Z" fill="#263238"/>
<g opacity="0.4">
<path d="M448.325 94.3376C448.323 94.8431 448.423 95.3439 448.617 95.8105C448.812 96.2771 449.098 96.7 449.459 97.0543L469.389 116.987H479.05C479.425 116.994 479.798 116.937 480.153 116.816L454.911 91.6054C454.37 91.0706 453.682 90.7074 452.935 90.5615C452.187 90.4155 451.414 90.4933 450.71 90.7851C450.007 91.0769 449.405 91.5696 448.981 92.2016C448.557 92.8335 448.329 93.5766 448.325 94.3376Z" fill="white"/>
<path d="M447.984 74.5759L482.918 109.473V104.04L450.842 71.9834C449.765 72.7008 448.802 73.5746 447.984 74.5759Z" fill="white"/>
<path d="M455.983 69.9343L475.819 89.7581C476.226 90.1627 476.742 90.438 477.305 90.5494C477.868 90.6609 478.45 90.6034 478.98 90.3843C479.51 90.1651 479.963 89.7941 480.283 89.3181C480.602 88.842 480.773 88.2821 480.774 87.709C480.772 87.333 480.695 86.9611 480.549 86.6148C480.402 86.2685 480.188 85.9545 479.92 85.6909L463.921 69.686H458.438C457.613 69.6816 456.79 69.7649 455.983 69.9343Z" fill="white"/>
</g>
</svg>
