<svg width="269" height="487" viewBox="0 0 269 487" fill="none" xmlns="http://www.w3.org/2000/svg">
<path d="M189.336 484.907C186.229 485.869 98.4813 483.991 95.1882 481.802C93.93 480.979 93.464 468.172 93.3242 452.711C93.3242 449.373 93.3242 445.927 93.3242 442.418C93.3242 438.258 93.3242 434.067 93.4018 429.999C93.6348 411.681 94.1941 395.552 94.1941 395.552L151.326 396.608L150.658 431.055L150.425 443.474L149.928 453.751C149.928 453.751 183.216 469.507 186.571 472.286C189.926 475.065 192.427 483.96 189.336 484.907Z" fill="#E8AEA7"/>
<path d="M189.336 484.907C186.229 485.869 98.4813 483.991 95.1882 481.802C93.93 480.979 93.464 468.172 93.3242 452.71C93.3242 449.373 93.3242 445.927 93.3242 442.418C93.3242 438.258 93.3242 434.066 93.4018 429.999L150.658 431.055L150.425 443.474L149.928 453.751C149.928 453.751 183.216 469.507 186.571 472.286C189.926 475.065 192.427 483.96 189.336 484.907Z" fill="white"/>
<path d="M189.6 485.046C187.596 485.667 150.207 485.046 122.993 484.037C116.78 483.789 110.939 483.509 106.295 483.214C99.895 482.811 95.6078 482.376 94.9243 481.926C93.371 480.901 92.9981 462.133 93.0292 442.325L150.503 443.396L150.021 453.735C150.021 453.735 183.48 469.554 186.866 472.363C190.252 475.173 192.691 484.068 189.6 485.046Z" fill="#2C2C2C"/>
<path d="M188.419 475.491C173.632 474.808 113.859 473.458 99.258 473.939C99.1337 473.939 99.1337 473.939 99.258 473.939C113.906 474.933 173.601 475.802 188.404 475.678C188.714 475.724 188.73 475.507 188.419 475.491Z" fill="#263238"/>
<path d="M152.118 453.491C146.309 452.28 139.179 453.025 134.643 457.077C134.457 457.232 134.643 457.48 134.876 457.418C140.479 455.748 146.243 454.676 152.071 454.22C152.157 454.209 152.236 454.168 152.295 454.105C152.354 454.042 152.389 453.961 152.395 453.875C152.4 453.788 152.376 453.703 152.325 453.633C152.275 453.563 152.202 453.513 152.118 453.491Z" fill="#A6A6A6"/>
<path d="M156.265 456.114C150.456 454.903 143.326 455.648 138.79 459.7C138.604 459.855 138.79 460.103 139.023 460.041C144.624 458.363 150.389 457.291 156.219 456.843C156.304 456.832 156.384 456.792 156.443 456.729C156.502 456.666 156.537 456.584 156.542 456.498C156.548 456.412 156.523 456.326 156.473 456.256C156.422 456.186 156.349 456.136 156.265 456.114Z" fill="#A6A6A6"/>
<path d="M160.413 458.738C154.619 457.527 147.473 458.272 142.938 462.308C142.767 462.479 142.938 462.712 143.171 462.665C148.772 460.989 154.537 459.916 160.366 459.467C160.452 459.456 160.531 459.415 160.59 459.352C160.649 459.289 160.684 459.208 160.69 459.121C160.695 459.035 160.67 458.95 160.62 458.88C160.569 458.81 160.496 458.76 160.413 458.738Z" fill="#A6A6A6"/>
<path d="M164.56 461.361C158.766 460.15 151.621 460.88 147.085 464.932C146.914 465.087 147.085 465.335 147.318 465.289C152.919 463.612 158.684 462.54 164.514 462.091C164.599 462.079 164.678 462.039 164.737 461.976C164.796 461.913 164.832 461.831 164.837 461.745C164.843 461.659 164.818 461.573 164.767 461.503C164.717 461.433 164.644 461.383 164.56 461.361Z" fill="#A6A6A6"/>
<path d="M160.366 448.523C156.188 451.628 150.798 452.839 145.951 454.515C145.454 454.686 145.066 454.205 145.05 453.77C144.957 453.77 144.879 453.677 144.926 453.553C146.815 448.428 150.031 443.896 154.246 440.42C156.716 438.433 161.018 437.098 163.224 440.295C165.43 443.493 162.758 446.676 160.366 448.523ZM161.919 443.866C163.084 437.501 156.157 440.761 154.386 442.314C153.273 443.324 152.235 444.414 151.279 445.574C149.213 447.949 147.52 450.572 145.703 453.134C148.033 452.156 150.363 451.395 152.786 450.51C155.597 449.392 161.314 447.359 161.95 443.866H161.919Z" fill="#A6A6A6"/>
<path d="M125.68 435.238C127.234 431.637 131.63 432.025 134.472 433.438C139.309 435.957 143.396 439.705 146.324 444.304C146.337 444.325 146.345 444.348 146.347 444.373C146.349 444.397 146.346 444.422 146.337 444.444C146.328 444.467 146.313 444.487 146.295 444.503C146.276 444.519 146.255 444.531 146.231 444.537C146.324 444.972 146.045 445.531 145.516 445.468C140.421 444.863 134.907 444.847 130.154 442.705C127.373 441.432 124.267 438.638 125.68 435.238ZM137.983 443C140.484 443.357 142.984 443.59 145.47 444.04C143.227 441.851 140.873 439.779 138.418 437.831C137.212 436.904 135.946 436.059 134.628 435.3C132.577 434.183 125.121 432.522 127.622 438.498C128.989 441.774 135.016 442.534 137.905 442.954L137.983 443Z" fill="#263238"/>
<path opacity="0.2" d="M144.693 478.736C137.299 478.534 129.828 478.301 122.946 478.037C116.733 477.789 110.893 477.509 106.248 477.215C99.8639 476.811 95.5611 476.376 94.8776 475.911C93.5418 475.026 93.0603 460.527 92.9982 443.637C106.062 452.33 131.692 469.825 144.693 478.736Z" fill="black"/>
<path d="M155.551 447.067H90.3108C90.3108 447.067 93.8835 300.384 93.1845 296.969C91.5069 288.803 54.3512 159.491 54.3512 159.491L105.844 160.376L123.428 160.671C123.428 160.671 121.875 182.217 122.527 184.499C131.132 215.873 147.924 269.445 151.357 289.3C157.399 323.778 155.551 447.067 155.551 447.067Z" fill="#212121"/>
<path d="M153.438 436.17C143.28 435.906 107.242 434.835 93.6817 435.859C93.5885 435.859 93.5885 436.03 93.6817 436.046C98.3417 436.806 143.264 436.589 153.438 436.449C153.475 436.449 153.511 436.435 153.537 436.408C153.563 436.382 153.578 436.347 153.578 436.31C153.578 436.273 153.563 436.237 153.537 436.211C153.511 436.185 153.475 436.17 153.438 436.17Z" fill="#37474F"/>
<path d="M98.3417 293.787C96.4001 285.854 81.8764 236.457 77.4338 220.825C72.9913 205.193 68.8284 189.56 65.0072 173.804C64.5256 171.801 64.0286 169.814 63.4538 167.827C63.4538 167.656 63.1587 167.734 63.1898 167.905C64.6499 175.837 66.5915 183.692 68.4555 191.547C70.3195 199.402 72.3233 207.211 74.4048 215.004C78.6195 230.672 83.2122 246.227 88.1829 261.668C90.6682 269.352 94.769 285.155 96.9592 292.933C99.1494 300.71 95.5768 428.455 95.7942 430.535C95.7942 430.658 95.8433 430.777 95.9307 430.864C96.0181 430.952 96.1366 431.001 96.2602 431.001C96.3838 431.001 96.5024 430.952 96.5898 430.864C96.6772 430.777 96.7262 430.658 96.7262 430.535C97.0369 415.508 100.268 301.626 98.3417 293.787Z" fill="#37474F"/>
<path d="M105.968 160.422C105.968 160.422 93.3709 297.683 93.2311 297.031C91.6778 289.145 56.7433 167.532 54.5531 159.925L54.46 159.568L105.968 160.422Z" fill="#37474F"/>
<path d="M121.719 486.42C118.613 487.382 30.8648 485.504 27.5562 483.315C26.3135 482.492 25.832 469.701 25.7077 454.224C25.7077 450.886 25.7077 447.44 25.7077 443.932C25.7077 439.787 25.7077 435.58 25.8009 431.513C26.0339 413.195 26.5776 397.065 26.5776 397.065L83.7247 398.121L83.0567 432.568L82.8082 444.987L82.3266 455.279C82.3266 455.279 115.599 471.02 118.954 473.799C122.309 476.578 124.795 485.473 121.719 486.42Z" fill="#E8AEA7"/>
<path d="M121.719 486.42C118.613 487.383 30.8648 485.504 27.5562 483.315C26.3135 482.493 25.832 469.701 25.7077 454.224C25.7077 450.886 25.7077 447.44 25.7077 443.932C25.7077 439.787 25.7077 435.58 25.8009 431.513L83.0567 432.568L82.8082 444.987L82.3266 455.279C82.3266 455.279 115.599 471.021 118.954 473.799C122.309 476.578 124.795 485.473 121.719 486.42Z" fill="white"/>
<path d="M121.983 486.56C119.964 487.181 82.5753 486.56 55.3764 485.551C49.0699 485.302 43.3226 485.023 38.6781 484.744C32.2784 484.324 27.9911 483.89 27.2921 483.44C25.7388 482.415 25.3816 463.647 25.3971 443.839L82.8704 444.91L82.3734 455.249C82.3734 455.249 115.832 471.083 119.218 473.877C122.605 476.671 125.074 485.582 121.983 486.56Z" fill="#2C2C2C"/>
<path d="M120.818 482.989C106.031 482.306 46.2582 480.971 31.6724 481.437C31.5482 481.437 31.5482 481.515 31.6724 481.53C46.3048 482.524 106.015 483.378 120.818 483.253C121.098 483.253 121.098 482.989 120.818 482.989Z" fill="#263238"/>
<path d="M84.4857 453.942C78.6918 452.731 71.5465 453.476 67.0107 457.528C66.8399 457.683 67.0108 457.932 67.2593 457.885C72.8584 456.2 78.624 455.128 84.4547 454.687C84.5536 454.691 84.65 454.656 84.7228 454.589C84.7957 454.522 84.8389 454.429 84.8431 454.33C84.8472 454.231 84.8118 454.135 84.7448 454.062C84.6778 453.989 84.5846 453.946 84.4857 453.942Z" fill="#A6A6A6"/>
<path d="M88.6333 456.628C82.8394 455.417 75.694 456.162 71.1583 460.214C70.9874 460.369 71.1582 460.617 71.4068 460.555C77.0081 458.882 82.7729 457.815 88.6022 457.373C88.7011 457.377 88.7975 457.341 88.8703 457.275C88.9431 457.208 88.9864 457.114 88.9905 457.016C88.9946 456.917 88.9593 456.82 88.8923 456.748C88.8253 456.675 88.7322 456.632 88.6333 456.628Z" fill="#A6A6A6"/>
<path d="M92.7806 459.251C86.9867 458.04 79.8413 458.785 75.3056 462.837C75.1347 462.992 75.3056 463.241 75.5541 463.179C81.1567 461.508 86.9207 460.436 92.7495 459.981C92.8344 459.967 92.9121 459.925 92.9694 459.861C93.0266 459.796 93.0598 459.714 93.0635 459.629C93.0672 459.543 93.0409 459.458 92.9894 459.389C92.9378 459.321 92.8641 459.272 92.7806 459.251Z" fill="#A6A6A6"/>
<path d="M96.9281 461.874C91.1341 460.664 83.9888 461.409 79.4531 465.445C79.2822 465.616 79.4531 465.864 79.7016 465.802C85.3024 464.124 91.0672 463.052 96.897 462.604C96.9819 462.591 97.0596 462.548 97.1168 462.484C97.174 462.42 97.2073 462.338 97.211 462.252C97.2146 462.166 97.1885 462.082 97.1369 462.013C97.0854 461.944 97.0116 461.895 96.9281 461.874Z" fill="#A6A6A6"/>
<path d="M92.7496 447.021C88.5556 450.126 83.1656 451.321 78.3192 452.998C77.8221 453.168 77.4338 452.687 77.4338 452.252C77.4082 452.252 77.3831 452.245 77.3608 452.233C77.3384 452.22 77.3195 452.203 77.3057 452.181C77.2918 452.16 77.2835 452.135 77.2815 452.11C77.2795 452.084 77.2837 452.059 77.2939 452.035C79.191 446.915 82.4057 442.385 86.6139 438.902C89.0837 436.915 93.371 435.596 95.5922 438.793C97.8135 441.991 95.1883 445.205 92.7496 447.021ZM94.3029 442.364C95.4679 435.999 88.5401 439.259 86.7849 440.811C85.6801 441.83 84.6424 442.919 83.6782 444.071C81.6956 446.494 79.8394 449.018 78.1172 451.631C80.4472 450.653 82.7772 449.893 85.2004 449.024C87.9654 447.906 93.6816 445.872 94.3185 442.364H94.3029Z" fill="#A6A6A6"/>
<path d="M58.048 442.752C59.6014 439.166 64.0128 439.538 66.8554 440.951C71.6864 443.473 75.7685 447.22 78.6918 451.818C78.7111 451.832 78.7267 451.851 78.7375 451.872C78.7483 451.894 78.7539 451.918 78.7539 451.942C78.7539 451.966 78.7483 451.99 78.7375 452.011C78.7267 452.033 78.7111 452.051 78.6918 452.066C78.6918 452.501 78.5054 453.044 77.9772 452.982C72.8823 452.376 67.368 452.361 62.6148 450.219C59.7567 448.946 56.65 446.167 58.048 442.752ZM70.366 450.514C72.8668 450.871 75.3522 451.104 77.8375 451.554C75.5941 449.365 73.2402 447.293 70.7853 445.344C69.5859 444.421 68.3248 443.581 67.0107 442.829C64.9448 441.696 57.4888 440.051 59.9897 446.012C61.3722 449.287 67.3836 450.048 70.366 450.467V450.514Z" fill="#263238"/>
<path d="M86.1322 453.696L22.865 452.532C22.865 452.532 40.6351 224.488 38.3983 212.396C34.7791 192.618 37.8546 170.047 47.3765 159.335L109.028 160.469C109.028 160.469 109.945 177.778 103.405 188.039C103.405 188.039 97.5493 191.578 94.7222 193.146L86.1322 453.696Z" fill="#212121"/>
<path d="M84.3926 442.473C74.793 442.053 77.5579 442.038 67.9583 441.712C63.2983 441.557 32.4025 440.548 27.991 441.184C27.8978 441.184 27.8978 441.355 27.991 441.37C32.3559 442.209 63.2362 442.674 67.9273 442.736C77.5424 442.876 74.7774 442.736 84.377 442.736C84.4051 442.729 84.4301 442.712 84.4484 442.69C84.4667 442.667 84.4774 442.639 84.4791 442.61C84.4808 442.581 84.4734 442.552 84.4579 442.527C84.4424 442.503 84.4195 442.484 84.3926 442.473Z" fill="#37474F"/>
<path d="M107.304 185.291C101.192 188.101 95.3308 191.424 89.7828 195.226C89.7354 195.253 89.7005 195.298 89.686 195.35C89.6714 195.403 89.6782 195.459 89.705 195.506C89.7318 195.553 89.7763 195.588 89.8287 195.603C89.8812 195.617 89.9373 195.61 89.9847 195.583C95.9029 192.479 101.961 189.374 107.708 185.974C107.779 185.912 107.826 185.827 107.841 185.735C107.856 185.642 107.838 185.546 107.79 185.465C107.742 185.384 107.667 185.323 107.578 185.291C107.49 185.259 107.393 185.259 107.304 185.291Z" fill="#37474F"/>
<path d="M99.4756 184.251C99.0864 185.439 98.7801 186.653 98.559 187.884C98.2967 188.838 98.2177 189.834 98.3261 190.818C98.3261 191.004 98.6212 190.988 98.7144 190.818C99.2068 189.9 99.5477 188.909 99.724 187.884C100.035 186.766 100.376 185.648 100.656 184.515C100.681 184.362 100.647 184.206 100.561 184.077C100.474 183.949 100.342 183.859 100.191 183.825C100.04 183.791 99.8813 183.817 99.7483 183.896C99.6153 183.975 99.5177 184.102 99.4756 184.251Z" fill="#37474F"/>
<path d="M99.0716 178.305C99.258 177.281 99.4444 176.256 99.6463 175.2C99.8483 174.145 100.143 173.074 100.268 172.003C100.268 171.847 100.563 171.894 100.532 172.003C100.345 173.027 100.314 174.098 100.206 175.107C100.097 176.116 99.9881 177.187 99.8638 178.212C99.6308 180.153 99.2735 182.093 98.8541 184.002C99.8747 183.852 100.847 183.47 101.697 182.885C102.51 182.094 103.053 181.067 103.25 179.951C103.576 178.771 103.84 177.591 104.182 176.427C104.63 175.151 104.957 173.836 105.161 172.499C105.161 172.329 105.456 172.391 105.425 172.499C105.129 175.303 104.551 178.07 103.701 180.758C103.328 181.829 103.079 182.9 102.147 183.475C101.072 184.033 99.8925 184.361 98.6833 184.437C98.5435 184.515 98.3415 184.437 98.357 184.266C98.4502 182.435 98.6677 180.277 99.0716 178.305Z" fill="#37474F"/>
<path d="M48.4484 211.79C48.0911 207.257 47.4387 202.755 47.0193 198.222C46.2619 189.136 46.9858 179.987 49.1629 171.133C49.1629 170.963 48.9455 170.9 48.9144 171.056C47.0192 178.836 46.0596 186.815 46.0563 194.823C46.2893 202.817 47.6096 210.719 47.6096 218.729C47.6096 226.739 46.8019 234.92 46.0563 242.993C45.3107 251.065 44.7049 259.246 44.0214 267.365C41.3186 299.965 38.7712 332.673 36.1771 365.335C35.447 374.447 34.7636 383.575 34.0646 392.688C33.3656 401.8 32.2782 424.853 31.7656 434.152C31.7656 434.959 32.915 434.912 33.0082 434.152C34.7014 417.79 36.1149 387.72 37.4042 371.312C38.6935 354.903 39.9983 338.821 41.3031 322.567C42.6079 306.314 43.8661 290.076 45.1399 273.838C45.7767 265.719 46.3824 257.585 47.0038 249.466C47.6251 241.347 48.3707 233.275 48.5571 225.171C48.77 220.712 48.7337 216.245 48.4484 211.79Z" fill="#37474F"/>
<path d="M71.0341 170.963C71.0253 170.939 71.0093 170.919 70.9885 170.904C70.9677 170.89 70.943 170.882 70.9176 170.882C70.8922 170.882 70.8675 170.89 70.8467 170.904C70.8258 170.919 70.8099 170.939 70.8011 170.963C70.4073 172.023 70.187 173.139 70.1487 174.269C69.9438 175.476 69.6425 176.665 69.2477 177.824C68.5239 180.186 67.2087 182.323 65.4266 184.034C61.4811 187.589 56.2619 188.831 51.2291 189.964C51.0427 189.964 51.1048 190.259 51.2291 190.274C54.1944 190.453 57.1659 190.047 59.9744 189.079C62.4823 188.364 64.8076 187.12 66.7934 185.431C68.6866 183.689 69.9988 181.407 70.5526 178.895C70.8346 177.588 71.0009 176.258 71.0497 174.921C71.0497 174.285 71.0497 173.633 71.0497 172.996C71.1885 172.325 71.1832 171.632 71.0341 170.963Z" fill="#37474F"/>
<path d="M95.2504 76.3456C121.02 95.4553 162.96 97.1784 167.636 94.974C177.531 90.4256 191.914 47.7198 195.394 32.1496C196.388 27.6477 163.784 28.7654 160.522 32.46C157.539 35.8287 150.363 65.3393 147.365 65.7739C132.374 66.2471 117.368 65.8324 102.427 64.532C80.8044 62.2966 87.6235 70.6949 95.2504 76.3456Z" fill="#E8AEA7"/>
<path d="M127.032 63.5694L123.164 93.732C123.164 93.732 100.221 84.7592 90.2332 75.5537C80.2453 66.3481 85.946 62.964 95.9184 62.4517C105.891 61.9394 127.032 63.5694 127.032 63.5694Z" fill="#EBEBEB"/>
<path d="M122.077 64.5164C122.077 64.3146 121.968 64.237 121.937 64.4388C120.328 72.7981 119.239 81.2488 118.675 89.7425C118.675 89.7425 118.768 89.7425 118.783 89.7425C119.84 85.6752 121.735 66.6897 122.077 64.5164Z" fill="#263238"/>
<path d="M35.0122 179.222C35.2297 179.47 126.504 181.41 127.342 180.494C128.538 179.19 113.813 87.7092 99.3824 67.7457C95.7786 62.7626 82.8238 59.3319 77.4338 64.3771C61.7762 78.9849 58.4831 91.3107 54.3823 101.355C50.3989 112.219 47.0537 123.306 44.3633 134.56C38.8335 156.045 34.2822 178.352 35.0122 179.222Z" fill="#EBEBEB"/>
<path d="M75.7716 64.5942C75.7716 64.5942 89.2079 95.2381 91.4136 103.062C94.4426 113.773 98.8696 184.375 98.8696 184.375L33.6296 180.556C33.6296 180.556 46.0563 109.97 60.2693 84.9148C71.4223 65.1997 75.7716 64.5942 75.7716 64.5942Z" fill="#FF8920"/>
<path d="M97.0056 66.0688C97.0056 66.0688 104.586 94.0115 106.077 98.234C107.568 102.456 120.818 184.422 120.818 184.422L128.865 181.426C128.865 181.426 119.809 124.671 111.778 95.7657C103.747 66.8606 97.0056 66.0688 97.0056 66.0688Z" fill="#FF8920"/>
<path d="M97.0212 156.759L38.5848 156.634C39.0819 154.446 39.5945 152.148 40.1381 149.773L96.4776 149.882C96.695 152.21 96.8503 154.508 97.0212 156.759Z" fill="#EBEBEB"/>
<path d="M124.64 156.805H116.283C115.925 154.569 115.537 152.272 115.149 149.943H123.397C123.832 152.334 124.251 154.6 124.64 156.805Z" fill="#EBEBEB"/>
<path d="M97.8912 168.805L36.0064 168.681C36.4414 166.601 36.9229 164.303 37.451 161.835L97.3941 161.959C97.5184 164.381 97.7358 166.678 97.8912 168.805Z" fill="#EBEBEB"/>
<path d="M126.752 168.867H118.255C117.913 166.709 117.541 164.412 117.152 162.005H125.571C125.991 164.474 126.395 166.771 126.752 168.867Z" fill="#EBEBEB"/>
<path d="M65.7681 84.4489C62.2886 110.032 67.1816 145.628 73.0066 149.773C89.6272 161.586 118.224 167.873 130.387 169.286C137.47 170.109 140.406 135.134 134.146 134.063C124.267 132.417 100.625 127.403 97.2697 125.897C93.9145 124.391 87.4215 101.059 81.3014 84.1229C74.6531 65.7273 67.4457 72.061 65.7681 84.4489Z" fill="#E8AEA7"/>
<path d="M126.317 135.258C131.734 131.615 136.591 127.201 140.732 122.156C145.392 115.947 151.745 106.26 155.178 108.666C162.199 113.618 146.464 137.851 146.464 137.851C146.464 137.851 137.812 147.429 130.402 143.129C129.063 142.319 127.973 141.156 127.253 139.767C126.532 138.379 126.208 136.819 126.317 135.258Z" fill="#E8AEA7"/>
<path d="M174.937 136.127C175.248 137.192 175.226 138.326 174.873 139.378C174.521 140.43 173.854 141.349 172.964 142.011C174.417 143.215 175.401 144.891 175.744 146.746C176.21 150.037 171.24 152.194 171.24 152.194C172.489 153.752 173.236 155.652 173.383 157.643C173.507 160.841 168.816 163.729 168.816 163.729C169.166 165.799 168.758 167.926 167.667 169.721C164.56 174.378 156.017 174.16 150.58 174.083C145.144 174.005 129.781 168.665 126.752 167.873L127.032 133.023C127.032 133.023 151.543 126.472 157.928 127.481C163.271 128.334 173.632 132.153 174.937 136.127Z" fill="#E8AEA7"/>
<path d="M172.731 141.468C167.232 139.186 161.36 138.674 155.52 137.804C155.395 137.804 155.364 137.99 155.52 138.006C161.329 138.798 166.921 140.723 172.606 141.747C172.642 141.756 172.679 141.752 172.712 141.736C172.745 141.72 172.771 141.693 172.786 141.66C172.801 141.626 172.803 141.589 172.793 141.554C172.783 141.519 172.761 141.488 172.731 141.468Z" fill="#263238"/>
<path d="M171.131 151.729C169.834 151.341 168.492 151.122 167.139 151.077C165.694 150.937 164.265 150.813 162.836 150.735C159.962 150.549 157.073 150.425 154.199 150.394C154.075 150.394 154.044 150.595 154.199 150.595C157.073 150.782 159.931 151.015 162.789 151.325C164.203 151.48 165.632 151.635 167.061 151.822C168.398 152.064 169.757 152.168 171.115 152.132C171.156 152.118 171.192 152.091 171.218 152.056C171.244 152.021 171.258 151.979 171.26 151.936C171.262 151.892 171.25 151.849 171.227 151.812C171.204 151.775 171.171 151.746 171.131 151.729Z" fill="#263238"/>
<path d="M168.692 163.729C167.513 163.385 166.283 163.248 165.057 163.325L161.127 163.123C158.502 162.983 155.877 162.844 153.267 162.611C153.143 162.611 153.112 162.813 153.267 162.813C155.924 163.061 158.58 163.356 161.236 163.573L165.15 163.884C166.332 164.093 167.541 164.093 168.723 163.884C168.723 163.884 168.739 163.744 168.692 163.729Z" fill="#263238"/>
<path d="M90.9322 108.588L61.4189 116.35C61.4189 116.35 61.1548 91.7296 65.9546 79.0933C70.7544 66.457 76.0202 70.4155 80.2297 79.4659C84.4392 88.5162 90.9322 108.588 90.9322 108.588Z" fill="#EBEBEB"/>
<path d="M88.1983 104.366C88.4003 104.366 88.4313 104.179 88.1983 104.211C79.841 105.855 71.5927 108.012 63.5003 110.668C63.5003 110.668 63.5003 110.793 63.5003 110.777C67.7409 110.234 86.0703 104.878 88.1983 104.366Z" fill="#263238"/>
<path d="M31.0665 16.0981C24.4637 16.3307 18.0571 18.4012 12.5683 22.0764C7.07945 25.7516 2.72649 30.8856 -0.000120733 36.8999L29.0472 35.9064L35.2606 51.5077L30.2122 67.4972L1.14943 68.5373C4.16713 74.094 8.61549 78.7441 14.0344 82.0067C19.4533 85.2693 25.6459 87.0258 31.9719 87.0946C38.2978 87.1635 44.5272 85.5421 50.0159 82.3982C55.5046 79.2542 60.0532 74.702 63.1913 69.2122C66.3293 63.7224 67.9428 57.4945 67.8649 51.1726C67.787 44.8507 66.0206 38.6644 62.7482 33.2535C59.4759 27.8426 54.8165 23.4036 49.252 20.3957C43.6876 17.3878 37.42 15.9202 31.0976 16.1447L31.0665 16.0981Z" fill="#7E8C96"/>
<path d="M237.536 79.7141C244.139 79.4816 250.545 77.4111 256.034 73.7359C261.523 70.0606 265.876 64.9267 268.603 58.9123L239.555 59.9524L233.342 44.4287L238.39 28.4237L267.453 27.3837C264.435 21.8264 259.986 17.176 254.566 13.9135C249.147 10.651 242.953 8.89483 236.627 8.82676C230.3 8.7587 224.07 10.3812 218.581 13.5263C213.093 16.6715 208.545 21.2251 205.408 26.7162C202.27 32.2072 200.658 38.4361 200.738 44.7586C200.818 51.0811 202.586 57.2676 205.861 62.6779C209.135 68.0882 213.796 72.526 219.363 75.5321C224.929 78.5382 231.197 80.0034 237.52 79.7762L237.536 79.7141Z" fill="#7E8C96"/>
<path d="M216.035 29.1488L217.167 60.7349L44.593 66.9082L43.4617 35.3222L216.035 29.1488Z" fill="#7E8C96"/>
<path d="M165.475 40.2872L165.943 53.3032L94.8776 55.8578L94.4092 42.8418L165.475 40.2872Z" fill="#738490"/>
<path d="M93.6039 77.0443C89.8293 77.7894 80.8511 71.8438 76.8746 66.3019C76.6105 65.9293 76.7037 61.5516 76.5794 56.2425C76.4862 53.0291 76.3154 49.4431 75.9115 46.1831L96.9747 48.6514C96.3117 52.8713 96.1604 57.1557 96.5242 61.4119C96.5912 61.8595 96.6951 62.3009 96.8348 62.7314C96.8348 62.7314 96.8348 62.8711 96.8348 62.9487C97.6115 65.4015 99.5221 75.8955 93.6039 77.0443Z" fill="#E8AEA7"/>
<path d="M96.8348 62.7314C96.8229 62.8034 96.8229 62.8768 96.8348 62.9487C96.1468 63.1286 95.4456 63.2532 94.7378 63.3213C82.8548 64.5011 78.1171 50.2814 77.0453 46.3384L96.928 48.6514C96.2565 52.8704 96.1 57.1552 96.462 61.4119C96.5568 61.8595 96.6813 62.3003 96.8348 62.7314Z" fill="#263238"/>
<path d="M72.1679 18.5972C69.9467 25.9089 73.8145 46.9901 79.0182 51.6937C86.5519 58.5087 98.8853 59.1607 104.679 50.1414C110.302 41.355 104.772 13.9556 98.9629 9.68658C90.4041 3.30633 75.461 7.80822 72.1679 18.5972Z" fill="#E8AEA7"/>
<path d="M89.7516 31.5908C89.7516 31.5908 89.6584 31.684 89.7516 31.7305C90.1244 33.1277 90.2953 34.8353 89.1148 35.5494C90.5904 35.0681 90.3419 32.8017 89.7516 31.5908Z" fill="#263238"/>
<path d="M88.1983 30.3953C85.8994 30.7369 86.7382 35.3164 88.8662 35.0525C90.9943 34.7886 90.1244 30.1159 88.1983 30.3953Z" fill="#263238"/>
<path d="M98.6522 29.8521C98.6522 29.8521 98.7765 29.852 98.7765 29.9452C98.9939 31.3734 99.491 33.0499 100.858 33.2207C99.2425 33.3604 98.6211 31.2492 98.6522 29.8521Z" fill="#263238"/>
<path d="M99.6463 28.1445C101.899 27.5546 102.924 32.103 100.827 32.6463C98.7298 33.1897 97.7512 28.6257 99.6463 28.1445Z" fill="#263238"/>
<path d="M85.9926 28.6258C86.5634 28.3405 87.1183 28.0244 87.6547 27.6789C88.2916 27.3063 88.8352 27.0734 89.208 26.3904C89.2835 26.1848 89.2878 25.9599 89.2202 25.7516C89.1526 25.5434 89.017 25.3638 88.8352 25.2416C88.4426 25.0533 88.007 24.9727 87.573 25.0082C87.139 25.0436 86.7222 25.1938 86.3654 25.4434C85.5663 25.8363 84.941 26.511 84.6101 27.3373C84.5544 27.5255 84.5522 27.7254 84.6039 27.9147C84.6555 28.104 84.759 28.2751 84.9025 28.4089C85.0461 28.5428 85.2242 28.6339 85.4168 28.6722C85.6093 28.7105 85.8087 28.6945 85.9926 28.6258Z" fill="#263238"/>
<path d="M100.92 26.049C100.281 26.0411 99.643 25.9944 99.0095 25.9093C98.3286 25.9546 97.6516 25.7746 97.0833 25.397C96.9275 25.2437 96.8277 25.0428 96.7995 24.8261C96.7714 24.6095 96.8166 24.3897 96.928 24.2017C97.1995 23.861 97.5574 23.5992 97.9644 23.4436C98.3715 23.288 98.8128 23.2442 99.2425 23.3168C100.136 23.3162 100.997 23.6546 101.65 24.2638C101.791 24.4112 101.887 24.5963 101.925 24.7967C101.963 24.9972 101.942 25.2044 101.865 25.3933C101.788 25.5822 101.657 25.7446 101.49 25.861C101.322 25.9774 101.124 26.0427 100.92 26.049Z" fill="#263238"/>
<path d="M92.0973 44.9721C92.4607 45.3313 92.9392 45.5512 93.4487 45.593C93.9758 45.4889 94.4739 45.2718 94.9088 44.9565C95.002 44.9565 94.9088 44.9565 94.9088 44.9565C94.7522 45.2725 94.5143 45.5411 94.2195 45.7348C93.9247 45.9285 93.5835 46.0403 93.2312 46.0587C92.9299 46.0319 92.6429 45.9177 92.4056 45.7302C92.1683 45.5426 91.991 45.29 91.8954 45.0031C91.9264 44.9876 92.0352 44.941 92.0973 44.9721Z" fill="#263238"/>
<path d="M92.8583 40.4549C93.3222 40.9486 93.8831 41.3414 94.5059 41.6085C95.1286 41.8756 95.7999 42.0114 96.4776 42.0073C97.0708 42.0138 97.6619 41.9354 98.2329 41.7744L98.559 41.6813L98.8697 41.5726C98.9401 41.5407 98.9989 41.4878 99.0379 41.421C99.0768 41.3542 99.0941 41.277 99.0872 41.2001C99.0944 41.1538 99.0944 41.1066 99.0872 41.0604V40.9362C98.9163 39.8495 98.4969 38.204 98.4969 38.204C98.9474 38.3282 101.153 38.8715 101.013 38.2971C99.9821 33.3884 98.4519 28.5977 96.4465 23.9998C96.428 23.9769 96.4029 23.9604 96.3745 23.9527C96.3462 23.945 96.3161 23.9463 96.2885 23.9567C96.261 23.967 96.2375 23.9857 96.2212 24.0101C96.205 24.0346 96.1968 24.0636 96.198 24.0929C97.13 28.6258 98.8386 32.9725 99.8483 37.5209C99.0626 37.3179 98.2517 37.229 97.4406 37.257C97.2853 37.257 98.2795 40.3618 98.3261 40.9206C97.4456 41.1749 96.5228 41.2496 95.6128 41.1402C94.7029 41.0309 93.8242 40.7398 93.0291 40.2842C92.8583 40.2376 92.703 40.3462 92.8583 40.4549Z" fill="#263238"/>
<path d="M97.4407 41.3396C96.9839 42.2319 96.3044 42.9912 95.4679 43.544C95.0018 43.8274 94.4586 43.9577 93.9146 43.9166C92.734 43.9166 92.501 42.7989 92.5476 41.8674C92.5838 41.3731 92.6723 40.8839 92.8117 40.4082C94.2172 41.2002 95.838 41.5263 97.4407 41.3396Z" fill="#263238"/>
<path d="M95.4678 43.5441C95.0018 43.8275 94.4585 43.9578 93.9145 43.9167C92.734 43.9167 92.501 42.799 92.5476 41.8675C93.152 41.7783 93.769 41.8952 94.2989 42.1994C94.8287 42.5036 95.2405 42.9773 95.4678 43.5441Z" fill="#FF9BBC"/>
<path d="M102.473 15.0113C102.163 14.4059 101.308 12.9312 100.485 12.9777C99.6619 13.0243 98.9318 14.8251 96.9901 15.5236C94.3184 16.5482 89.2236 13.9713 85.5266 15.3374C81.8297 16.7034 79.9035 20.5223 79.7793 27.3217C79.655 34.1211 74.8396 40.0356 72.929 35.751C72.929 35.5958 72.7582 35.3164 72.5718 34.9128C71.4223 28.517 71.1116 22.0281 72.1679 18.5973C75.461 7.80836 90.4196 3.35304 98.9629 9.65567C100.552 11.1287 101.757 12.9671 102.473 15.0113Z" fill="#263238"/>
<path d="M76.6881 35.7821C76.6881 35.7821 71.7795 29.0603 68.7195 30.83C65.6594 32.5997 69.4495 42.4107 73.1153 43.6837C73.5728 43.8817 74.0658 43.9848 74.5644 43.9867C75.0629 43.9886 75.5567 43.8893 76.0157 43.6947C76.4747 43.5002 76.8893 43.2146 77.2346 42.8551C77.5798 42.4956 77.8483 42.0698 78.0239 41.6035L76.6881 35.7821Z" fill="#E8AEA7"/>
<path d="M69.869 33.6245C69.869 33.6245 69.869 33.7021 69.869 33.7177C71.0518 34.2742 72.1043 35.0732 72.9579 36.0627C73.8116 37.0523 74.4475 38.2103 74.8241 39.4614C74.6724 39.2017 74.4649 38.9789 74.2166 38.809C73.9683 38.6391 73.6855 38.5263 73.3884 38.4788C73.0912 38.4312 72.7872 38.4502 72.4983 38.5342C72.2094 38.6182 71.9427 38.7652 71.7175 38.9647C71.7175 38.9647 71.7175 39.1199 71.7175 39.1044C72.1611 38.9532 72.6406 38.9421 73.0908 39.0726C73.541 39.2031 73.9401 39.469 74.2339 39.834C74.7149 40.4577 75.1312 41.1287 75.4765 41.8366C75.6008 42.0694 76.0201 41.9297 75.9269 41.6813C75.9891 38.3592 73.364 33.8729 69.869 33.6245Z" fill="#263238"/>
<path d="M105.533 17.8521C105.533 17.8521 99.3202 -2.43742 81.1306 3.01141C62.9411 8.46023 68.9215 28.8274 68.9215 28.8274L105.533 17.8521Z" fill="#FF8920"/>
<path d="M67.163 27.8361L106.501 16.0415L107.367 18.9261L68.0289 30.7207L67.163 27.8361Z" fill="#FF8920"/>
<path d="M87.0954 21.8108L95.2815 19.3581L87.375 0L79.189 2.45275L87.0954 21.8108Z" fill="#FF8920"/>
<path opacity="0.1" d="M87.0954 21.8108L95.2815 19.3581L87.375 0L79.189 2.45275L87.0954 21.8108Z" fill="black"/>
<path d="M196.807 51.5698C192.846 54.2399 191.961 48.0304 191.961 48.0304C191.961 48.0304 191.076 57.3446 185.903 58.4468C180.73 59.549 180.125 52.02 180.062 51.4922C180.062 51.9734 178.975 60.4494 173.663 61.1014C168.35 61.7534 168.645 54.0536 168.677 53.5568C168.475 54.007 165.818 59.8595 161.671 59.4403C154.557 58.6952 160.739 41.3242 158.316 36.0616L147.784 33.6554C150.481 32.9816 152.925 31.542 154.821 29.5106C157.648 26.6542 159.481 24.7448 161.888 23.9531C162.949 23.5647 164.107 23.5286 165.19 23.8502C166.273 24.1718 167.223 24.834 167.9 25.7383C167.9 25.7383 169.251 20.8329 173.414 20.1964C175.558 19.8704 177.981 23.0062 177.981 23.0062C178.344 21.9197 179 20.9546 179.877 20.2176C180.754 19.4807 181.818 19.0005 182.952 18.8303C185.934 18.5509 187.907 21.7488 187.907 21.7488C187.907 21.7488 190.827 18.644 193.965 19.2805C200.302 20.631 205.32 45.826 196.807 51.5698Z" fill="#E8AEA7"/>
<path d="M155.986 35.1302L148.002 33.6709L147.163 33.2984C137.843 28.7655 134.86 15.8187 142.208 16.9985C147.8 17.8989 151.652 26.7008 157.508 26.7939L155.986 35.1302Z" fill="#E8AEA7"/>
<path d="M188.295 22.1523H188.419C192.243 30.3111 193.505 39.4359 192.039 48.3253C192.039 48.6048 191.51 48.6513 191.51 48.3253C191.708 39.4917 190.625 30.676 188.295 22.1523Z" fill="#263238"/>
<path d="M177.996 22.8665C177.996 22.7734 178.136 22.7268 178.183 22.8665C182.321 31.9319 183.092 42.1741 180.358 51.7561C180.249 52.0977 179.814 52.2839 179.907 51.8958C181.398 45.2206 180.311 30.8457 177.996 22.8665Z" fill="#263238"/>
<path d="M168.226 54.162C170.82 44.8478 170.152 35.5336 168.086 26.0641C168.086 25.9399 168.226 25.9089 168.288 26.0641C170.556 30.4107 171.24 36.5581 171.395 41.386C171.602 45.8677 170.633 50.3256 168.583 54.3172C168.475 54.4104 168.164 54.3638 168.226 54.162Z" fill="#263238"/>
</svg>
