<svg width="77" height="80" viewBox="0 0 77 80" fill="none" xmlns="http://www.w3.org/2000/svg">
<path d="M63.7593 72.8002H11.1013L11.7537 70.4716L12.8255 66.7769L17.4855 50.7565L21.6174 36.397L24.3357 26.9431L28.4676 12.5836L30.7354 4.71311C31.24 3.33149 32.1574 2.13829 33.3633 1.29522C34.5692 0.452155 36.0052 0 37.4769 0C38.9486 0 40.3847 0.452155 41.5906 1.29522C42.7964 2.13829 43.7138 3.33149 44.2184 4.71311L45.1038 7.81785L46.4862 12.6147L50.6181 26.9741L53.3365 36.4281L57.4683 50.7875L59.1925 56.7952L63.7593 72.8002Z" fill="#FF8920"/>
<path d="M74.6102 76.4473C75.435 77.7797 74.4767 79.5 72.9097 79.5H3.73704C2.13965 79.5 1.18686 77.7197 2.07293 76.3906L6.40627 69.8906C6.7772 69.3342 7.40166 69 8.07037 69H68.8859C69.5785 69 70.2218 69.3584 70.5864 69.9473L74.6102 76.4473Z" fill="#FF8920"/>
<path d="M50.7824 26.3439H24.5L28.6319 12H46.6505L50.7824 26.3439Z" fill="white"/>
<path d="M57.4838 50.7564H17.501L21.6328 36.397H53.3519L57.4838 50.7564Z" fill="white"/>
<path d="M10.418 69.1365C14.6806 71.0484 19.1697 72.41 23.7766 73.1882C28.3351 73.9821 32.9595 74.3355 37.5858 74.2438C39.9002 74.0886 42.2457 74.073 44.5136 73.716C45.6631 73.5608 46.8281 73.4831 47.962 73.2813C49.0959 73.0795 50.2454 72.8466 51.3949 72.6603C51.9696 72.5517 52.5444 72.4585 53.1191 72.3344L54.8122 71.9152L58.214 71.0925C60.4664 70.4871 62.6876 69.7264 64.9866 69.1365C62.8585 70.1455 60.7149 71.1546 58.5247 72.0239L55.154 73.1726L53.4764 73.7315C52.9016 73.9022 52.3269 74.0264 51.7521 74.1817L48.2727 75.0044C47.1232 75.2683 45.9271 75.3925 44.7621 75.5943C42.3986 75.936 40.0187 76.1536 37.6324 76.2463C32.8584 76.3292 28.0932 75.8076 23.4504 74.6939C18.8013 73.6579 14.3833 71.7739 10.418 69.1365Z" fill="#B44818"/>
<g style="mix-blend-mode:multiply" opacity="0.1">
<path d="M12.2354 70.0369C14.2795 70.4976 16.2764 71.1472 18.2002 71.9774C25.9669 75.5168 41.0808 76.6345 57.5617 71.7601C59.3478 71.3529 61.0754 70.7218 62.7032 69.8817L62.0353 66.777C62.0353 66.777 27.8619 56.8418 29.8191 7.78687L28.4367 12.5837L24.3048 26.9431L21.5864 36.3971L17.4546 50.7565L12.2354 70.0369Z" fill="black"/>
</g>
</svg>
